<?xml version="1.0" encoding="UTF-8"?>
<svg version="1.1" xmlns="http://www.w3.org/2000/svg" width="420" height="594">
<path d="M0 0 C2.13684352 -0.00217577 4.27316005 -0.02036686 6.40991211 -0.03930664 C19.77677629 -0.09614797 32.58720206 1.4563867 45.53295898 4.93530273 C47.00974121 5.32782227 47.00974121 5.32782227 48.51635742 5.72827148 C60.47921263 9.01265472 71.21723935 14.02282086 81.97045898 20.18530273 C82.91276367 20.69577148 83.85506836 21.20624023 84.82592773 21.73217773 C92.61721099 26.05495048 99.49235592 31.22048695 106.35620117 36.86206055 C107.4678416 37.77329635 108.58892553 38.67309273 109.7175293 39.56323242 C111.17183575 40.7261664 112.57615331 41.95106841 113.97045898 43.18530273 C113.97045898 43.84530273 113.97045898 44.50530273 113.97045898 45.18530273 C114.96045898 45.51530273 115.95045898 45.84530273 116.97045898 46.18530273 C116.97045898 46.84530273 116.97045898 47.50530273 116.97045898 48.18530273 C117.63045898 48.18530273 118.29045898 48.18530273 118.97045898 48.18530273 C120.53478685 49.87804558 122.0237447 51.64100126 123.47045898 53.43530273 C124.66155273 54.89709961 124.66155273 54.89709961 125.87670898 56.38842773 C127.55793932 58.63425035 128.85181797 60.63188303 129.97045898 63.18530273 C130.63045898 63.18530273 131.29045898 63.18530273 131.97045898 63.18530273 C133.41577148 65.13452148 133.41577148 65.13452148 135.09545898 67.87280273 C135.71678711 68.88342773 136.33811523 69.89405273 136.97827148 70.93530273 C137.9644043 72.54405273 137.9644043 72.54405273 138.97045898 74.18530273 C139.9565918 75.70124023 139.9565918 75.70124023 140.96264648 77.24780273 C151.77634391 94.0784602 158.19744188 112.70501162 161.49780273 132.39624023 C161.80697972 134.22063997 162.15205045 136.03940878 162.53686523 137.84936523 C168.43419849 168.449514 162.41643168 203.74063475 147.97045898 231.18530273 C147.41100586 232.31581055 146.85155273 233.44631836 146.27514648 234.61108398 C145.80334961 235.56370117 145.33155273 236.51631836 144.84545898 237.49780273 C144.36850586 238.46331055 143.89155273 239.42881836 143.40014648 240.42358398 C142.01694384 243.09550823 140.65268353 245.68924524 138.97045898 248.18530273 C138.31045898 248.18530273 137.65045898 248.18530273 136.97045898 248.18530273 C136.88795898 248.72155273 136.80545898 249.25780273 136.72045898 249.81030273 C135.69464627 253.05870965 134.00482004 255.47282132 131.97045898 258.18530273 C131.31045898 258.18530273 130.65045898 258.18530273 129.97045898 258.18530273 C129.64045898 259.50530273 129.31045898 260.82530273 128.97045898 262.18530273 C128.31045898 262.18530273 127.65045898 262.18530273 126.97045898 262.18530273 C126.72166992 262.74991211 126.47288086 263.31452148 126.21655273 263.89624023 C117.46970275 279.96412139 97.08741544 294.14781013 80.97045898 302.18530273 C79.71966283 302.83872891 78.46971655 303.49378354 77.22045898 304.15014648 C68.69450368 308.5843489 60.17339295 312.33585875 50.97045898 315.18530273 C50.27114258 315.4031543 49.57182617 315.62100586 48.85131836 315.84545898 C18.27030471 325.17706733 -15.57067279 324.67387182 -46.02954102 315.18530273 C-47.26188477 314.80374023 -48.49422852 314.42217773 -49.76391602 314.02905273 C-64.32707354 309.15270135 -77.47972439 301.68037165 -90.29223633 293.31616211 C-91.46092373 292.55543136 -92.6376151 291.80687189 -93.8215332 291.07006836 C-95.25839502 290.16036416 -96.64942347 289.17898737 -98.02954102 288.18530273 C-98.02954102 287.52530273 -98.02954102 286.86530273 -98.02954102 286.18530273 C-98.58770508 285.94295898 -99.14586914 285.70061523 -99.72094727 285.45092773 C-106.60850813 281.67500604 -112.1852249 275.27530013 -117.02954102 269.18530273 C-117.78750977 268.45182617 -118.54547852 267.71834961 -119.32641602 266.96264648 C-122.37327194 263.83213411 -124.91142265 260.53066159 -127.46704102 256.99780273 C-127.95148682 256.32998779 -128.43593262 255.66217285 -128.93505859 254.97412109 C-132.60547529 249.86635566 -136.02849561 244.71948862 -139.02954102 239.18530273 C-139.65344727 238.05350586 -140.27735352 236.92170898 -140.92016602 235.75561523 C-146.66039862 225.01582519 -150.55462868 213.83460279 -154.02954102 202.18530273 C-154.54000977 200.4934082 -154.54000977 200.4934082 -155.06079102 198.76733398 C-166.24697938 156.42761101 -156.14868191 111.45154447 -134.71704102 74.31030273 C-133.29125977 71.88061523 -133.29125977 71.88061523 -132.02954102 70.18530273 C-131.36954102 70.18530273 -130.70954102 70.18530273 -130.02954102 70.18530273 C-129.66989258 69.11795898 -129.66989258 69.11795898 -129.30297852 68.02905273 C-127.83305614 64.7465267 -125.97450855 62.4291846 -123.65454102 59.68530273 C-122.88368164 58.76749023 -122.11282227 57.84967773 -121.31860352 56.90405273 C-120.56321289 56.00686523 -119.80782227 55.10967773 -119.02954102 54.18530273 C-118.32442383 53.28811523 -117.61930664 52.39092773 -116.89282227 51.46655273 C-114.83473102 48.94679322 -112.59036663 47.1839959 -110.02954102 45.18530273 C-109.28704102 44.44280273 -108.54454102 43.70030273 -107.77954102 42.93530273 C-102.32858528 37.484347 -96.70997444 32.09580035 -90.02954102 28.18530273 C-89.36954102 28.18530273 -88.70954102 28.18530273 -88.02954102 28.18530273 C-88.02954102 27.52530273 -88.02954102 26.86530273 -88.02954102 26.18530273 C-81.40454102 22.18530273 -81.40454102 22.18530273 -78.02954102 22.18530273 C-78.02954102 21.52530273 -78.02954102 20.86530273 -78.02954102 20.18530273 C-72.38738017 17.46435858 -66.72266149 14.79799923 -61.02954102 12.18530273 C-60.395 11.89252441 -59.76045898 11.59974609 -59.10668945 11.2980957 C-40.33587967 2.7814225 -20.43119956 -0.00231725 0 0 Z " fill="#223048" transform="translate(215.029541015625,120.814697265625)"/>
<path d="M0 0 C15.18745851 -0.09399235 30.37490353 -0.16424533 45.56258869 -0.20724869 C52.6166139 -0.22775841 59.67045702 -0.25565303 66.72436523 -0.30175781 C73.54548526 -0.34631932 80.36641699 -0.36920981 87.18767357 -0.37950897 C89.77608382 -0.3868385 92.36448504 -0.40114917 94.9528141 -0.42292023 C118.43431109 -0.61238006 143.41640855 0.69552826 162 17 C162.5878125 17.45890625 163.175625 17.9178125 163.78125 18.390625 C171.71342613 24.72244981 177.15514459 33.18603565 182 42 C182.55494141 42.99 182.55494141 42.99 183.12109375 44 C192.06615705 61.82051521 192.48171402 84.32244608 186.33203125 103.03222656 C178.88568761 123.58846887 165.39810665 138.27584662 145.625 147.6875 C128.69715799 154.98688152 112.26578989 156.31756196 94.125 156.125 C92.45443252 156.1149383 90.78385909 156.10581815 89.11328125 156.09765625 C85.07537022 156.07592258 81.03775348 156.04157357 77 156 C77.00888245 156.56661346 77.01776489 157.13322693 77.0269165 157.7170105 C77.11593451 163.65498691 77.17595829 169.59277144 77.21972656 175.53125 C77.23974747 177.74259145 77.26697259 179.95388058 77.30175781 182.16503906 C77.35069627 185.35755378 77.37306467 188.54936396 77.390625 191.7421875 C77.41127014 192.71864227 77.43191528 193.69509705 77.45318604 194.70114136 C77.45628122 204.33347327 74.65003833 212.18429413 67.9921875 219.2421875 C59.21161783 226.98974898 50.2487772 227.1499456 39.0390625 227.09765625 C37.89335785 227.0962413 36.7476532 227.09482635 35.56723022 227.09336853 C31.91979322 227.0877858 28.27241835 227.07523641 24.625 227.0625 C22.14713631 227.05748277 19.66927165 227.05292025 17.19140625 227.04882812 C11.12758309 227.03782201 5.06379598 227.02110103 -1 227 C-1 225.35 -1 223.7 -1 222 C-0.14277344 221.90203125 0.71445313 221.8040625 1.59765625 221.703125 C10.68603836 220.51456545 16.6976158 218.96095174 23 212 C27.99211923 203.23124991 27.56347391 193.54612933 27.50170898 183.79785156 C27.5054986 182.08346616 27.51100392 180.36908384 27.51808167 178.65470886 C27.53196553 174.02887275 27.52091841 169.40341151 27.50437045 164.77759647 C27.49045623 159.92421788 27.49698692 155.07085964 27.50050354 150.21746826 C27.50319961 142.0737915 27.48977853 133.93026265 27.46655273 125.78662109 C27.43991106 116.3803284 27.4382095 106.97428232 27.4499411 97.56796479 C27.46072793 88.50116725 27.454527 79.43445864 27.44038582 70.36766815 C27.43463748 66.51615031 27.43469953 62.66469779 27.43945122 58.81317902 C27.44423135 54.27893885 27.4340765 49.74496813 27.41249657 45.21077919 C27.40694396 43.54956025 27.40644936 41.88831534 27.41144943 40.22709465 C27.41742975 37.95491251 27.4048459 35.68354674 27.38768005 33.41143799 C27.38525016 32.14166737 27.38282026 30.87189674 27.38031673 29.56364822 C26.53622266 21.65430822 22.21221655 14.58717796 16.18359375 9.453125 C11.13918628 5.98827946 6.00538104 4.82450928 0 4 C0 2.68 0 1.36 0 0 Z " fill="#1896C3" transform="translate(153,187)"/>
<path d="M0 0 C0 22.44 0 44.88 0 68 C5.73375 67.87625 11.4675 67.7525 17.375 67.625 C20.05761963 67.57400146 20.05761963 67.57400146 22.79443359 67.52197266 C37.61516192 67.31771158 37.61516192 67.31771158 51.4375 62.4375 C53.99632256 61.05335361 56.22955759 59.9234808 59 59 C61.44819359 59.9556146 63.63162443 60.95596595 65.9375 62.1875 C66.59975586 62.54118652 67.26201172 62.89487305 67.94433594 63.25927734 C76.88731153 68.31409592 84.78240718 75.5244748 89 85 C73.67622824 100.66647592 50.49373927 106.91219154 29.1471405 107.18704224 C25.13923875 107.20091493 21.13263918 107.16754053 17.125 107.125 C15.45443252 107.1149383 13.78385909 107.10581815 12.11328125 107.09765625 C8.07537022 107.07592258 4.03775348 107.04157357 0 107 C0.00888245 107.56661346 0.01776489 108.13322693 0.0269165 108.7170105 C0.11593451 114.65498691 0.17595829 120.59277144 0.21972656 126.53125 C0.23974747 128.74259145 0.26697259 130.95388058 0.30175781 133.16503906 C0.35069627 136.35755378 0.37306467 139.54936396 0.390625 142.7421875 C0.41127014 143.71864227 0.43191528 144.69509705 0.45318604 145.70114136 C0.45628122 155.33347327 -2.34996167 163.18429413 -9.0078125 170.2421875 C-17.78838217 177.98974898 -26.7512228 178.1499456 -37.9609375 178.09765625 C-39.10664215 178.0962413 -40.2523468 178.09482635 -41.43276978 178.09336853 C-45.08020678 178.0877858 -48.72758165 178.07523641 -52.375 178.0625 C-54.85286369 178.05748277 -57.33072835 178.05292025 -59.80859375 178.04882812 C-65.87241691 178.03782201 -71.93620402 178.02110103 -78 178 C-78 176.35 -78 174.7 -78 173 C-77.14277344 172.90203125 -76.28554687 172.8040625 -75.40234375 172.703125 C-66.31175521 171.51427689 -60.30555187 169.9596852 -54 163 C-48.9299363 154.13845637 -49.39567256 144.16975656 -49.390625 134.30078125 C-49.37561678 132.61254817 -49.35888417 130.92432962 -49.34051514 129.23612976 C-49.29712537 124.82873804 -49.2769061 120.42154427 -49.26177979 116.01397705 C-49.24210549 111.50203889 -49.20014765 106.99031135 -49.16015625 102.47851562 C-49.08516212 93.65239932 -49.03468516 84.8263664 -49 76 C-48.67 76 -48.34 76 -48 76 C-47.77213542 77.98567708 -47.54427083 79.97135417 -47.31640625 81.95703125 C-47.02829265 84.19396393 -47.02829265 84.19396393 -46 87 C-46.4375 89.6875 -46.4375 89.6875 -47 92 C-46.34257812 91.51789063 -45.68515625 91.03578125 -45.0078125 90.5390625 C-41.29123222 88.63733181 -37.96092029 88.47919469 -33.875 88.375 C-27.23925277 88.16641291 -27.23925277 88.16641291 -21 86 C-20.87501171 74.22332518 -21.10641096 62.5106615 -21.73217773 50.74804688 C-21.78059814 49.76771484 -21.82901855 48.78738281 -21.87890625 47.77734375 C-21.9260376 46.90327881 -21.97316895 46.02921387 -22.02172852 45.12866211 C-22 43 -22 43 -21 41 C-20.34 41 -19.68 41 -19 41 C-19.03480469 40.18917969 -19.06960937 39.37835938 -19.10546875 38.54296875 C-19.39443089 26.72304136 -17.49353962 16.4672128 -10 7 C-2.43548387 0 -2.43548387 0 0 0 Z " fill="#EAAF45" transform="translate(230,236)"/>
<path d="M0 0 C8.08680142 7.33267509 11.53141326 15.86365443 12.23828125 26.62890625 C12.48042304 39.46242103 10.49395576 50.84557168 2 61 C-5.66964134 68.66964134 -14.63037755 70.97686131 -25.21289062 71.11352539 C-26.69401984 71.11328017 -28.17515651 71.10794612 -29.65625 71.09765625 C-30.35588867 71.09664917 -31.05552734 71.09564209 -31.77636719 71.09460449 C-34.35092851 71.08943413 -36.92546618 71.0754737 -39.5 71.0625 C-45.275 71.041875 -51.05 71.02125 -57 71 C-57.495 37.835 -57.495 37.835 -58 4 C-68.134046 11.6005345 -72.80114494 18.56170051 -75 31 C-75.48106877 35.32961896 -75.79938849 39.64880555 -76 44 C-76.99 44 -77.98 44 -79 44 C-79.64638366 29.46354967 -79.33731789 17.61096915 -69.71875 5.80859375 C-53.24047631 -11.53104424 -19.43685742 -14.3907502 0 0 Z " fill="#21304A" transform="translate(287,233)"/>
<path d="M0 0 C0.33 0 0.66 0 1 0 C1.33 48.84 1.66 97.68 2 148 C-8.125 150.25 -8.125 150.25 -12.79516602 150.22705078 C-13.83556534 150.22689972 -14.87596466 150.22674866 -15.94789124 150.22659302 C-17.03887619 150.21627045 -18.12986115 150.20594788 -19.25390625 150.1953125 C-20.39536606 150.1924826 -21.53682587 150.18965271 -22.71287537 150.18673706 C-26.32952723 150.17561476 -29.94592401 150.15052481 -33.5625 150.125 C-36.02668911 150.11495993 -38.49088214 150.10583588 -40.95507812 150.09765625 C-46.97013792 150.0757015 -52.98505073 150.04230374 -59 150 C-59 148.35 -59 146.7 -59 145 C-58.14277344 144.90203125 -57.28554687 144.8040625 -56.40234375 144.703125 C-47.31175521 143.51427689 -41.30555187 141.9596852 -35 135 C-29.9299363 126.13845637 -30.39567256 116.16975656 -30.390625 106.30078125 C-30.37561678 104.61254817 -30.35888417 102.92432962 -30.34051514 101.23612976 C-30.29712537 96.82873804 -30.2769061 92.42154427 -30.26177979 88.01397705 C-30.24210549 83.50203889 -30.20014765 78.99031135 -30.16015625 74.47851562 C-30.08516212 65.65239932 -30.03468516 56.8263664 -30 48 C-29.67 48 -29.34 48 -29 48 C-28.77213542 49.98567708 -28.54427083 51.97135417 -28.31640625 53.95703125 C-28.02829265 56.19396393 -28.02829265 56.19396393 -27 59 C-27.4375 61.6875 -27.4375 61.6875 -28 64 C-27.01386719 63.27683594 -27.01386719 63.27683594 -26.0078125 62.5390625 C-22.29123222 60.63733181 -18.96092029 60.47919469 -14.875 60.375 C-8.23925277 60.16641291 -8.23925277 60.16641291 -2 58 C-1.87501171 46.22332518 -2.10641096 34.5106615 -2.73217773 22.74804688 C-2.78059814 21.76771484 -2.82901855 20.78738281 -2.87890625 19.77734375 C-2.9260376 18.90327881 -2.97316895 18.02921387 -3.02172852 17.12866211 C-3 15 -3 15 -2 13 C-1.34 13 -0.68 13 0 13 C0 8.71 0 4.42 0 0 Z " fill="#D74567" transform="translate(211,264)"/>
<path d="M0 0 C0 22.44 0 44.88 0 68 C-6.435 68.495 -6.435 68.495 -13 69 C-11.9275 70.464375 -10.855 71.92875 -9.75 73.4375 C-1.79289404 84.83464773 0.31038472 95.38563337 0.3359375 109.1171875 C0.3425943 110.36952179 0.3492511 111.62185608 0.35610962 112.91213989 C0.36620478 115.55306291 0.37179657 118.19357373 0.37060547 120.83447266 C0.37044277 123.52484984 0.38435958 126.21454724 0.41162109 128.90478516 C0.44841395 132.80912846 0.45808459 136.7126877 0.4609375 140.6171875 C0.47530853 141.80915741 0.48967957 143.00112732 0.50448608 144.22921753 C0.44739403 154.7566746 -1.99278723 162.65395317 -9.2578125 170.37109375 C-11.88273609 172.82533846 -14.29972743 175 -18 175 C-18.09356936 155.35441203 -18.16404087 135.70886947 -18.20724869 116.06310463 C-18.22784684 106.9405941 -18.25591474 97.81822227 -18.30175781 88.69580078 C-18.34170988 80.74183092 -18.36745277 72.78796155 -18.37635398 64.83389413 C-18.3815546 60.62482977 -18.3937202 56.41605281 -18.42292023 52.20708084 C-18.45022191 48.23931305 -18.45841549 44.27194903 -18.45243073 40.30409622 C-18.45352441 38.85374756 -18.46139027 37.40338435 -18.4768219 35.95311737 C-18.60820159 22.96051217 -16.03395159 13.55963412 -7 4 C-2.16981132 0 -2.16981132 0 0 0 Z " fill="#F2BB59" transform="translate(230,236)"/>
<path d="M0 0 C0 22.44 0 44.88 0 68 C-5.61 68 -11.22 68 -17 68 C-16.90460938 69.49273437 -16.80921875 70.98546875 -16.7109375 72.5234375 C-16.59840927 74.47392673 -16.48646003 76.42444943 -16.375 78.375 C-16.31054688 79.35984375 -16.24609375 80.3446875 -16.1796875 81.359375 C-16.128125 82.30039062 -16.0765625 83.24140625 -16.0234375 84.2109375 C-15.97106934 85.08024902 -15.91870117 85.94956055 -15.86474609 86.84521484 C-16 89 -16 89 -18 91 C-18.09306696 82.30668061 -18.16394962 73.6135352 -18.20724869 64.9198246 C-18.22804004 60.88207915 -18.25620073 56.8446769 -18.30175781 52.80712891 C-18.34552046 48.90376838 -18.36920052 45.000736 -18.37950897 41.0971489 C-18.38684625 39.61492123 -18.40117301 38.1327096 -18.42292023 36.65062332 C-18.60882689 23.4444318 -16.23988152 13.77754704 -7 4 C-2.16981132 0 -2.16981132 0 0 0 Z " fill="#DADE92" transform="translate(230,236)"/>
<path d="M0 0 C0.99 0.495 0.99 0.495 2 1 C1.67 1.66 1.34 2.32 1 3 C0.34 3 -0.32 3 -1 3 C-1 3.66 -1 4.32 -1 5 C-2.6796875 6.2890625 -2.6796875 6.2890625 -4.875 7.625 C-5.95394531 8.29402344 -5.95394531 8.29402344 -7.0546875 8.9765625 C-9 10 -9 10 -11 10 C-11.06316406 10.61617188 -11.12632812 11.23234375 -11.19140625 11.8671875 C-12 14 -12 14 -14.21484375 15.1953125 C-15.11332031 15.50210937 -16.01179687 15.80890625 -16.9375 16.125 C-21.93824421 17.83244178 -21.93824421 17.83244178 -25 22 C-25.61488281 21.97679687 -26.22976563 21.95359375 -26.86328125 21.9296875 C-27.67152344 21.91164063 -28.47976563 21.89359375 -29.3125 21.875 C-30.11300781 21.85179687 -30.91351563 21.82859375 -31.73828125 21.8046875 C-34.28388576 21.84182678 -34.28388576 21.84182678 -37 24 C-39.69134463 24.28131512 -42.3021123 24.4645173 -45 24.5625 C-46.55215407 24.63389518 -48.10423901 24.70680951 -49.65625 24.78125 C-50.40777344 24.81605469 -51.15929687 24.85085938 -51.93359375 24.88671875 C-54.46692578 25.02559707 -56.97868926 25.28235436 -59.5 25.5625 C-65.11113314 26.13488762 -70.70813939 26.02919832 -76.33984375 25.87524414 C-78.22676084 25.84392512 -80.11476526 25.91440241 -82 26 C-84.41968112 28.41968112 -84.25986598 29.02953695 -84.30297852 32.34204102 C-84.31962051 33.2395961 -84.33626251 34.13715118 -84.35340881 35.06190491 C-84.36182297 36.03276535 -84.37023712 37.00362579 -84.37890625 38.00390625 C-84.39590073 38.9975267 -84.4128952 39.99114716 -84.43040466 41.01487732 C-84.48366544 44.19735321 -84.52389439 47.37981515 -84.5625 50.5625 C-84.60635652 53.74868852 -84.6530016 56.93477307 -84.70530701 60.12083435 C-84.73738244 62.10615779 -84.76423501 64.09157337 -84.78553772 66.07704163 C-84.79902756 66.97144455 -84.8125174 67.86584747 -84.82641602 68.78735352 C-84.84068382 69.97410423 -84.84068382 69.97410423 -84.85523987 71.18482971 C-85 73 -85 73 -86 74 C-85.95875 74.9075 -85.9175 75.815 -85.875 76.75 C-86.01839809 80.47835036 -86.72728103 82.07793275 -89 85 C-89.680625 85.33 -90.36125 85.66 -91.0625 86 C-93.27436582 86.89415374 -93.27436582 86.89415374 -94.25 89.625 C-94.62125 90.800625 -94.62125 90.800625 -95 92 C-96.98 91.67 -98.96 91.34 -101 91 C-101.495 92.485 -101.495 92.485 -102 94 C-102.74765625 94.06058594 -103.4953125 94.12117188 -104.265625 94.18359375 C-105.25046875 94.26738281 -106.2353125 94.35117187 -107.25 94.4375 C-108.22453125 94.51871094 -109.1990625 94.59992188 -110.203125 94.68359375 C-112.87428869 94.91589708 -112.87428869 94.91589708 -114.91041565 95.51069641 C-117.08806781 96.02062223 -118.99628153 96.13347222 -121.23022461 96.14526367 C-122.46687111 96.15483345 -122.46687111 96.15483345 -123.72850037 96.16459656 C-125.05205284 96.16626579 -125.05205284 96.16626579 -126.40234375 96.16796875 C-127.77441734 96.17296135 -127.77441734 96.17296135 -129.17420959 96.17805481 C-131.10661314 96.18311181 -133.03902539 96.18546351 -134.97143555 96.18530273 C-137.92316093 96.18748938 -140.87451257 96.20565851 -143.82617188 96.22460938 C-145.70572789 96.22754354 -147.58528568 96.22952818 -149.46484375 96.23046875 C-150.34518784 96.23765427 -151.22553192 96.24483978 -152.1325531 96.25224304 C-156.48180299 96.23607424 -160.10858897 96.19764479 -164 94 C-164.33 93.34 -164.66 92.68 -165 92 C-164.36852554 91.99191315 -163.73705109 91.98382629 -163.08644104 91.97549438 C-156.48329347 91.88909148 -149.88043382 91.78957426 -143.27758789 91.68261719 C-140.8170253 91.6444564 -138.35640938 91.60958157 -135.89575195 91.578125 C-132.34827683 91.5321937 -128.80116481 91.47424573 -125.25390625 91.4140625 C-124.1629213 91.40251129 -123.07193634 91.39096008 -121.94789124 91.37905884 C-109.46589404 91.14067593 -102.07522222 89.07522222 -93.1875 80.1875 C-88.19750489 72.91636427 -87.54446287 65.47042923 -87.48828125 56.83984375 C-87.46135445 55.29412437 -87.46135445 55.29412437 -87.43388367 53.71717834 C-87.3801234 50.45732598 -87.34599518 47.19761713 -87.3125 43.9375 C-87.27929667 41.71417288 -87.24480426 39.49086462 -87.20898438 37.26757812 C-87.12441708 31.8451809 -87.05592359 26.42276429 -87 21 C-85.998479 20.98541748 -84.99695801 20.97083496 -83.96508789 20.95581055 C-80.16073188 20.89674822 -76.35690329 20.81955095 -72.55297852 20.73754883 C-70.92318437 20.70479637 -69.29329024 20.67661976 -67.66333008 20.65356445 C-44.19684544 20.31305047 -17.83532847 16.81616684 0 0 Z " fill="#1F161E" transform="translate(317,322)"/>
<path d="M0 0 C3.65219777 2.903029 4.77853409 5.52129168 6 10 C5.34 10.66 4.68 11.32 4 12 C0 6.25 0 6.25 0 4 C-0.804375 3.731875 -1.60875 3.46375 -2.4375 3.1875 C-3.283125 2.795625 -4.12875 2.40375 -5 2 C-5.495 0.515 -5.495 0.515 -6 -1 C-7.155 -0.979375 -8.31 -0.95875 -9.5 -0.9375 C-14.75990628 -0.94667959 -19.84145249 -1.60753682 -25.0078125 -2.546875 C-36.54896951 -4.56589538 -45.85029372 -3.42901992 -57 0 C-57.08894531 0.60585937 -57.17789063 1.21171875 -57.26953125 1.8359375 C-58.19915123 4.58999884 -59.24741305 5.1098222 -61.6875 6.625 C-69.79744541 12.42404699 -73.30833749 21.43074493 -75 31 C-75.48106877 35.32961896 -75.79938849 39.64880555 -76 44 C-76.99 44 -77.98 44 -79 44 C-79.64638366 29.46354967 -79.33731789 17.61096915 -69.71875 5.80859375 C-52.74945883 -12.04772855 -20.11187157 -13.66411656 0 0 Z " fill="#132638" transform="translate(287,233)"/>
<path d="M0 0 C0.33 0 0.66 0 1 0 C1.06948567 7.90156605 1.12280364 15.80300463 1.15543652 23.70480061 C1.17109805 27.37386676 1.19234475 31.04272401 1.22631836 34.71166992 C1.25889514 38.25188947 1.27684934 41.79190799 1.28463173 45.33226585 C1.29287924 47.34147655 1.31630137 49.35060628 1.33988953 51.35969543 C1.34011612 52.58073471 1.34034271 53.80177399 1.34057617 55.05981445 C1.34723801 56.13681107 1.35389984 57.21380768 1.36076355 58.32344055 C1 61 1 61 -0.33622742 62.85734558 C-2.95015514 64.65255251 -5.26461594 64.20841047 -8.375 64.0625 C-15.89645398 63.72533137 -19.89338597 65.69761285 -26 70 C-27.55093449 71.55093449 -27.2068744 73.08452729 -27.29711914 75.24438477 C-27.33708511 76.14524307 -27.37705109 77.04610138 -27.41822815 77.97425842 C-27.45681442 78.95341721 -27.4954007 79.93257599 -27.53515625 80.94140625 C-27.57813339 81.93881332 -27.62111053 82.9362204 -27.66539001 83.96385193 C-27.80221723 87.16323049 -27.93242475 90.36284049 -28.0625 93.5625 C-28.15386242 95.72592985 -28.24565359 97.88934164 -28.33789062 100.05273438 C-28.56357712 105.36828968 -28.78382308 110.68404993 -29 116 C-29.33 116 -29.66 116 -30 116 C-30 93.56 -30 71.12 -30 48 C-29.67 48 -29.34 48 -29 48 C-28.65820312 50.97851562 -28.65820312 50.97851562 -28.31640625 53.95703125 C-28.02829265 56.19396393 -28.02829265 56.19396393 -27 59 C-27.4375 61.6875 -27.4375 61.6875 -28 64 C-27.34257812 63.51789063 -26.68515625 63.03578125 -26.0078125 62.5390625 C-22.29123222 60.63733181 -18.96092029 60.47919469 -14.875 60.375 C-8.23925277 60.16641291 -8.23925277 60.16641291 -2 58 C-1.87501171 46.22332518 -2.10641096 34.5106615 -2.73217773 22.74804688 C-2.78059814 21.76771484 -2.82901855 20.78738281 -2.87890625 19.77734375 C-2.9260376 18.90327881 -2.97316895 18.02921387 -3.02172852 17.12866211 C-3 15 -3 15 -2 13 C-1.34 13 -0.68 13 0 13 C0 8.71 0 4.42 0 0 Z " fill="#874D74" transform="translate(211,264)"/>
<path d="M0 0 C9.28519691 2.50951268 16.74688627 7.29238964 23.5 14 C24.00418457 14.49806152 24.50836914 14.99612305 25.02783203 15.50927734 C28.14229679 18.73139219 30.19745102 21.90772665 32 26 C25.9849487 31.97870658 16.82320077 40 8 40 C8 39.34 8 38.68 8 38 C12.38461538 35 12.38461538 35 15 35 C15.33 33.68 15.66 32.36 16 31 C16 31.66 16 32.32 16 33 C16.66 32.67 17.32 32.34 18 32 C18 30.68 18 29.36 18 28 C19.75 26.25 19.75 26.25 22 25 C23.32 25 24.64 25 26 25 C25.67 24.67 25.34 24.34 25 24 C24.95936168 22.33382885 24.957279 20.66611905 25 19 C24.34 19 23.68 19 23 19 C23 18.34 23 17.68 23 17 C22.34 16.67 21.68 16.34 21 16 C20.505 16.495 20.505 16.495 20 17 C18.515 16.505 18.515 16.505 17 16 C17 14.02 17 12.04 17 10 C15.68 10 14.36 10 13 10 C13 9.34 13 8.68 13 8 C11.34750513 7.29894157 9.67632417 6.64199649 8 6 C6.88625 5.566875 5.7725 5.13375 4.625 4.6875 C-0.99271964 3.62207041 -4.40524393 5.93682929 -9 9 C-11.83012127 9.94337376 -13.54299918 10.12172829 -16.47143555 10.11352539 C-17.82249641 10.11341209 -17.82249641 10.11341209 -19.20085144 10.11329651 C-20.16968765 10.10813522 -21.13852386 10.10297394 -22.13671875 10.09765625 C-23.62858452 10.09553383 -23.62858452 10.09553383 -25.15058899 10.09336853 C-28.32958982 10.08776761 -31.50852043 10.07521496 -34.6875 10.0625 C-36.84179586 10.05748512 -38.99609282 10.05292219 -41.15039062 10.04882812 C-46.43361774 10.03779788 -51.71680385 10.02105886 -57 10 C-57 9.67 -57 9.34 -57 9 C-55.96182129 8.98018066 -54.92364258 8.96036133 -53.85400391 8.93994141 C-49.95859759 8.86318772 -46.06353136 8.77458527 -42.16845703 8.68261719 C-40.49079154 8.64461286 -38.81305246 8.60971328 -37.13525391 8.578125 C-20.77026352 8.54569073 -20.77026352 8.54569073 -5.4375 3.4375 C-4.61121094 3.00308594 -3.78492188 2.56867188 -2.93359375 2.12109375 C-1.05950043 1.14518285 -1.05950043 1.14518285 0 0 Z " fill="#DECB79" transform="translate(287,295)"/>
<path d="M0 0 C0.66 0.33 1.32 0.66 2 1 C2.13769045 13.3309448 1.65076721 24.90426615 -1 37 C-1.66 37 -2.32 37 -3 37 C-2.731875 38.010625 -2.46375 39.02125 -2.1875 40.0625 C-1.96484833 44.73818505 -2.91431773 45.94849899 -5.87109375 49.32421875 C-7.37247263 51.21614881 -7.37247263 51.21614881 -7 55 C-7.5775 55.020625 -8.155 55.04125 -8.75 55.0625 C-11.74608699 56.31086958 -12.34579507 58.2269184 -13.79296875 61.01171875 C-15.91557978 64.50818805 -18.82860155 67.43007367 -22 70 C-22.66 70 -23.32 70 -24 70 C-24.33 70.99 -24.66 71.98 -25 73 C-27.33814997 74.12411056 -29.58255576 75.09409458 -32 76 C-33.4540625 76.5878125 -33.4540625 76.5878125 -34.9375 77.1875 C-35.9584375 77.5896875 -35.9584375 77.5896875 -37 78 C-37 77.34 -37 76.68 -37 76 C-35.3203125 74.7109375 -35.3203125 74.7109375 -33.125 73.375 C-32.40570313 72.92898438 -31.68640625 72.48296875 -30.9453125 72.0234375 C-29 71 -29 71 -27 71 C-27 70.34 -27 69.68 -27 69 C-26.34 69 -25.68 69 -25 69 C-25 67.68 -25 66.36 -25 65 C-24.34 65 -23.68 65 -23 65 C-22.67 64.01 -22.34 63.02 -22 62 C-21.236875 61.23816406 -20.47375 60.47632813 -19.6875 59.69140625 C-3.90755755 43.88852784 -0.81833229 21.22020288 0 0 Z " fill="#1A283A" transform="translate(343,256)"/>
<path d="M0 0 C0.99 0.33 1.98 0.66 3 1 C4.39334526 20.81646591 -3.38050299 37.87704003 -16 53 C-18.2421875 54.8125 -18.2421875 54.8125 -20 56 C-20.4125 55.443125 -20.825 54.88625 -21.25 54.3125 C-26.12557952 47.86976991 -31.22630433 41.51579711 -38 37 C-38 36.01 -38 35.02 -38 34 C-38.66 33.67 -39.32 33.34 -40 33 C-38.68 32.34 -37.36 31.68 -36 31 C-36 32.32 -36 33.64 -36 35 C-35.34 35.33 -34.68 35.66 -34 36 C-34 36.66 -34 37.32 -34 38 C-31.36 38.33 -28.72 38.66 -26 39 C-26 39.66 -26 40.32 -26 41 C-25.34 41 -24.68 41 -24 41 C-23.34 42.98 -22.68 44.96 -22 47 C-21.34 47 -20.68 47 -20 47 C-19.34 45.68 -18.68 44.36 -18 43 C-17.34 43 -16.68 43 -16 43 C-15.67 42.34 -15.34 41.68 -15 41 C-14.01 41.99 -13.02 42.98 -12 44 C-11.01 41.03 -10.02 38.06 -9 35 C-8.34 35 -7.68 35 -7 35 C-7.495 33.02 -7.495 33.02 -8 31 C-6.68 30.67 -5.36 30.34 -4 30 C-3.81824219 29.09121094 -3.81824219 29.09121094 -3.6328125 28.1640625 C-2.421875 22.109375 -1.2109375 16.0546875 0 10 C0.66 10 1.32 10 2 10 C1.46274105 6.62294375 0.88935377 3.303314 0 0 Z " fill="#19B1AA" transform="translate(339,265)"/>
<path d="M0 0 C15.23930204 -0.07040809 30.47859655 -0.12314269 45.71802521 -0.15543652 C52.79563366 -0.17083665 59.87314045 -0.19179316 66.95068359 -0.22631836 C73.12701064 -0.25643268 79.30326398 -0.27562465 85.47966242 -0.28226548 C88.74321409 -0.28614092 92.00650863 -0.2967317 95.27000427 -0.31719017 C108.83780444 -0.39879989 121.78720358 -0.37356641 135 3 C135 3.33 135 3.66 135 4 C133.39592672 4.02708567 131.7917215 4.04643483 130.1875 4.0625 C129.29417969 4.07410156 128.40085937 4.08570313 127.48046875 4.09765625 C125 4 125 4 122 3 C120.46480928 2.89950496 118.92571251 2.85384097 117.38728333 2.84178162 C116.44077408 2.8319928 115.49426483 2.82220398 114.51907349 2.81211853 C113.4825766 2.80636307 112.44607971 2.8006076 111.37817383 2.79467773 C110.28533585 2.78477814 109.19249786 2.77487854 108.06654358 2.76467896 C104.44672833 2.73303832 100.82689995 2.7082963 97.20703125 2.68359375 C94.70024775 2.66302644 92.19346774 2.64203003 89.68669128 2.62062073 C83.75818242 2.57102649 77.82965045 2.52576711 71.90109223 2.48259836 C64.48936367 2.42836508 57.07769291 2.36741836 49.66601562 2.30664062 C36.44404973 2.19903091 23.22204481 2.09740558 10 2 C10 2.66 10 3.32 10 4 C6.7 3.67 3.4 3.34 0 3 C0 2.01 0 1.02 0 0 Z " fill="#33A4D2" transform="translate(153,187)"/>
<path d="M0 0 C0.33 0 0.66 0 1 0 C1 22.11 1 44.22 1 67 C1.99 67 2.98 67 4 67 C4 66.01 4 65.02 4 64 C17.53 64 31.06 64 45 64 C45 63.34 45 62.68 45 62 C46.134375 61.731875 47.26875 61.46375 48.4375 61.1875 C49.613125 60.795625 50.78875 60.40375 52 60 C52.33 59.01 52.66 58.02 53 57 C54.65 57 56.3 57 58 57 C56.5107201 61.13589176 54.23225166 62.28816975 50.375 64.1875 C49.37210937 64.69667969 48.36921875 65.20585937 47.3359375 65.73046875 C40.88657102 68.18485295 34.16120093 68.14502038 27.34375 68.09765625 C26.64411133 68.09664917 25.94447266 68.09564209 25.22363281 68.09460449 C22.64907149 68.08943413 20.07453382 68.0754737 17.5 68.0625 C11.725 68.041875 5.95 68.02125 0 68 C0 45.56 0 23.12 0 0 Z " fill="#373B3A" transform="translate(230,236)"/>
<path d="M0 0 C0.33 0 0.66 0 1 0 C1.33 28.71 1.66 57.42 2 87 C-0.82411765 87.94137255 -2.52918032 88.11725382 -5.44921875 88.09765625 C-6.29677734 88.09443359 -7.14433594 88.09121094 -8.01757812 88.08789062 C-9.33918945 88.07532227 -9.33918945 88.07532227 -10.6875 88.0625 C-11.58017578 88.05798828 -12.47285156 88.05347656 -13.39257812 88.04882812 C-15.59511987 88.03704983 -17.79752599 88.02060164 -20 88 C-20 87.67 -20 87.34 -20 87 C-18.78441406 86.87882812 -17.56882813 86.75765625 -16.31640625 86.6328125 C-14.73171883 86.46402922 -13.1470861 86.29473184 -11.5625 86.125 C-10.76005859 86.04636719 -9.95761719 85.96773438 -9.13085938 85.88671875 C-7.07829006 85.66154237 -5.03706991 85.33777413 -3 85 C-1.72893541 82.45787083 -1.90233422 80.7134165 -1.9375 77.87109375 C-1.94523437 76.83533203 -1.95296875 75.79957031 -1.9609375 74.73242188 C-1.98665504 72.56314717 -2.01268844 70.39387619 -2.0390625 68.22460938 C-2.04679687 67.17982422 -2.05453125 66.13503906 -2.0625 65.05859375 C-2.07410156 64.11298584 -2.08570313 63.16737793 -2.09765625 62.19311523 C-2.02112058 59.69059016 -1.82139295 57.33664508 -1.51586914 54.85986328 C-0.8618148 49.30656284 -0.77275061 43.77033609 -0.68359375 38.18359375 C-0.66281265 37.08652603 -0.64203156 35.98945831 -0.62062073 34.85914612 C-0.55570203 31.38532231 -0.49651078 27.91142868 -0.4375 24.4375 C-0.39425981 22.0696545 -0.35064385 19.70181582 -0.30664062 17.33398438 C-0.20008052 11.55606148 -0.09821151 5.77807051 0 0 Z " fill="#E8735D" transform="translate(211,325)"/>
<path d="M0 0 C2.475 0.99 2.475 0.99 5 2 C5 2.66 5 3.32 5 4 C5.66 4 6.32 4 7 4 C7 5.32 7 6.64 7 8 C7.66 8 8.32 8 9 8 C12.05668852 16.35494863 12.18214071 24.25718853 12.1875 33.0625 C12.19974609 34.12533203 12.21199219 35.18816406 12.22460938 36.28320312 C12.23455247 41.58949933 12.15017004 46.0546089 10 51 C9.70738281 51.73605469 9.41476562 52.47210938 9.11328125 53.23046875 C8.57556594 54.54459252 8.03383809 55.85708098 7.48828125 57.16796875 C6.76434029 59.20948708 6.76434029 59.20948708 8 62 C10.01508358 62.73323796 10.01508358 62.73323796 12 63 C11.505 63.99 11.505 63.99 11 65 C11.66 65 12.32 65 13 65 C13 65.66 13 66.32 13 67 C8.1725201 65.58707905 4.2837641 63.57025846 0 61 C0.47050781 60.26136719 0.94101562 59.52273438 1.42578125 58.76171875 C9.53420091 45.54986311 12.10745679 32.40788773 9.3125 17.0625 C7.60413788 10.6927498 3.98812045 5.17409213 0 0 Z " fill="#1C8CA9" transform="translate(288,234)"/>
<path d="M0 0 C0.33 0 0.66 0 1 0 C1.09325368 7.37216853 1.16404243 14.74420699 1.20724869 22.11684895 C1.22800031 25.54141087 1.25608503 28.96556517 1.30175781 32.38989258 C1.35409597 36.33930343 1.37304794 40.28855729 1.390625 44.23828125 C1.41127014 45.45018631 1.43191528 46.66209137 1.45318604 47.91072083 C1.45529861 56.0245401 0.88516513 64.69923159 -4.80999756 71.00361633 C-6.75 72.6875 -6.75 72.6875 -10 75 C-10 73.35 -10 71.7 -10 70 C-7.525 69.505 -7.525 69.505 -5 69 C-4.68538803 67.6254817 -4.37343027 66.25035581 -4.0625 64.875 C-3.88847656 64.10929687 -3.71445313 63.34359375 -3.53515625 62.5546875 C-3.35855469 61.71164062 -3.18195313 60.86859375 -3 60 C-2.73678955 58.78026489 -2.73678955 58.78026489 -2.46826172 57.53588867 C-1.81906994 52.63377992 -1.91757082 47.8094018 -1.97265625 42.87109375 C-1.98529734 40.68034009 -1.99765868 38.4895848 -2.00976562 36.29882812 C-2.03461829 32.86005532 -2.06265618 29.42136787 -2.09594727 25.98266602 C-2.12614265 22.65380304 -2.14391713 19.32504993 -2.16015625 15.99609375 C-2.17361588 14.96890732 -2.1870755 13.94172089 -2.20094299 12.88340759 C-2.20432175 11.92213455 -2.2077005 10.96086151 -2.21118164 9.97045898 C-2.21863907 9.12917953 -2.2260965 8.28790009 -2.23377991 7.42112732 C-1.96707691 4.65903401 -1.13548476 2.51922018 0 0 Z " fill="#331D33" transform="translate(180,330)"/>
<path d="M0 0 C0.33 0 0.66 0 1 0 C1 20.13 1 40.26 1 61 C0.01 61.495 0.01 61.495 -1 62 C-1.99 61.34 -2.98 60.68 -4 60 C-4 59.34 -4 58.68 -4 58 C-3.34 58 -2.68 58 -2 58 C-1.87501171 46.22332518 -2.10641096 34.5106615 -2.73217773 22.74804688 C-2.78059814 21.76771484 -2.82901855 20.78738281 -2.87890625 19.77734375 C-2.9260376 18.90327881 -2.97316895 18.02921387 -3.02172852 17.12866211 C-3 15 -3 15 -2 13 C-1.34 13 -0.68 13 0 13 C0 8.71 0 4.42 0 0 Z " fill="#6C5F69" transform="translate(211,264)"/>
<path d="M0 0 C0.33 0 0.66 0 1 0 C1.02505615 0.98057373 1.0501123 1.96114746 1.07592773 2.97143555 C1.19358905 7.54353398 1.31534402 12.11551979 1.4375 16.6875 C1.45923279 17.51199646 1.48096558 18.33649292 1.50335693 19.18597412 C1.75554159 28.6752032 2.0707352 38.14781342 2.625 47.625 C3.01477605 54.57279257 2.89960791 61.35725446 2.40893555 68.296875 C1.81300813 76.86128581 1.91438701 85.41967578 2 94 C1.34 94 0.68 94 0 94 C0 62.98 0 31.96 0 0 Z " fill="#396793" transform="translate(181,218)"/>
<path d="M0 0 C5.85293857 4.35567521 10.6221233 9.62095315 12 17 C12.08947412 19.73061266 12.12625525 22.43485969 12.11352539 25.16503906 C12.11367142 25.9849231 12.11381744 26.80480713 12.1139679 27.64953613 C12.11327218 30.35492616 12.10549572 33.06024702 12.09765625 35.765625 C12.09579086 37.64320844 12.09436753 39.52079237 12.09336853 41.39837646 C12.08955289 46.33688707 12.07973071 51.27536821 12.06866455 56.21386719 C12.05842996 61.25455324 12.05386652 66.29524405 12.04882812 71.3359375 C12.03810761 81.22397127 12.0210426 91.11198318 12 101 C11.67 101 11.34 101 11 101 C10.99635437 100.02440125 10.99270874 99.04880249 10.98895264 98.04364014 C10.95185401 88.80544417 10.89392057 79.56757697 10.81609726 70.32963181 C10.77675248 65.58139506 10.74450069 60.83334016 10.72900391 56.08496094 C10.71375111 51.49409496 10.67915472 46.90372937 10.63169098 42.31308746 C10.61696548 40.57024764 10.60896411 38.82733634 10.60811615 37.08443451 C10.65069209 22.59564791 10.65069209 22.59564791 6 9 C2.99499259 6.65292747 2.99499259 6.65292747 0 6 C0.33 5.01 0.66 4.02 1 3 C0.67 2.01 0.34 1.02 0 0 Z " fill="#0F2C4F" transform="translate(169,196)"/>
<path d="M0 0 C0.33 1.32 0.66 2.64 1 4 C0.21625 4.33 -0.5675 4.66 -1.375 5 C-5.14552856 7.87278367 -5.04148815 10.4286358 -6 15 C-6.99 15.495 -6.99 15.495 -8 16 C-7.67 17.32 -7.34 18.64 -7 20 C-7.763125 20.020625 -8.52625 20.04125 -9.3125 20.0625 C-12.41389118 20.79660949 -12.41389118 20.79660949 -13.8125 24.5625 C-14.204375 25.696875 -14.59625 26.83125 -15 28 C-15.66 27.67 -16.32 27.34 -17 27 C-16.49333068 17.71106252 -12.35519756 10.6652072 -6 4 C-4.05461197 2.52021432 -2.09689524 1.26789014 0 0 Z " fill="#BCD7AB" transform="translate(229,236)"/>
<path d="M0 0 C1.00869141 0.00902344 2.01738281 0.01804688 3.05664062 0.02734375 C5.51718457 0.05066644 7.97720896 0.08339237 10.4375 0.125 C10.4375 0.785 10.4375 1.445 10.4375 2.125 C9.28894531 2.15078125 8.14039063 2.1765625 6.95703125 2.203125 C-1.86977922 2.49382549 -9.52098952 3.22086347 -17.86328125 6.28515625 C-20.5625 7.125 -20.5625 7.125 -23.3125 7.12109375 C-24.42625 7.12302734 -24.42625 7.12302734 -25.5625 7.125 C-27.26782323 9.06509522 -27.26782323 9.06509522 -28.5625 11.125 C-29.2225 11.125 -29.8825 11.125 -30.5625 11.125 C-32.23215451 11.44302943 -33.89928518 11.77484951 -35.5625 12.125 C-26.37501022 1.40626192 -13.33860637 -0.22951937 0 0 Z " fill="#072740" transform="translate(255.5625,224.875)"/>
<path d="M0 0 C0.33 0 0.66 0 1 0 C2.34111441 21.4036607 3.5795574 42.56983886 2 64 C1.34 64 0.68 64 0 64 C0 42.88 0 21.76 0 0 Z " fill="#182536" transform="translate(231,239)"/>
<path d="M0 0 C0.66 0.33 1.32 0.66 2 1 C1.67 1.99 1.34 2.98 1 4 C1.66 4.33 2.32 4.66 3 5 C3 5.66 3 6.32 3 7 C5.64 7.33 8.28 7.66 11 8 C11 8.66 11 9.32 11 10 C11.66 10 12.32 10 13 10 C14.31626692 13.61973402 15 16.09567131 15 20 C16.65 20.33 18.3 20.66 20 21 C20.33 19.35 20.66 17.7 21 16 C22.32 15.67 23.64 15.34 25 15 C23.33248852 18.94139078 20.77289351 21.7892812 18 25 C15.41598451 22.51934513 13.06468942 19.91533765 10.75 17.1875 C7.62771283 13.55724854 4.24075547 10.52819365 0.50390625 7.54296875 C-1 6 -1 6 -1 3 C-1.66 2.67 -2.32 2.34 -3 2 C-2.01 1.34 -1.02 0.68 0 0 Z " fill="#1DB8A5" transform="translate(302,296)"/>
<path d="M0 0 C8.58 0 17.16 0 26 0 C26 0.33 26 0.66 26 1 C17.75 1 9.5 1 1 1 C1.02320313 4.33738281 1.04640625 7.67476563 1.0703125 11.11328125 C1.08594874 14.37670512 1.09807084 17.64012469 1.10986328 20.90356445 C1.11986707 23.15651341 1.13347436 25.40944957 1.15087891 27.66235352 C1.17537598 30.91686175 1.18653966 34.17119703 1.1953125 37.42578125 C1.20563507 38.41894852 1.21595764 39.41211578 1.22659302 40.43537903 C1.22762159 46.9730909 1.06350932 53.74146004 -1 60 C-4 62 -4 62 -6.1875 61.625 C-6.785625 61.41875 -7.38375 61.2125 -8 61 C-7.401875 60.360625 -6.80375 59.72125 -6.1875 59.0625 C-1.09781804 51.93694526 -0.54387695 44.38042101 -0.48828125 35.83984375 C-0.47033005 34.80936417 -0.45237885 33.77888458 -0.43388367 32.71717834 C-0.3801234 29.45732598 -0.34599518 26.19761713 -0.3125 22.9375 C-0.27929667 20.71417288 -0.24480426 18.49086462 -0.20898438 16.26757812 C-0.12201334 10.84503533 -0.06165058 5.42312492 0 0 Z " fill="#412913" transform="translate(230,343)"/>
<path d="M0 0 C0.66 0.33 1.32 0.66 2 1 C2.13769045 13.3309448 1.65076721 24.90426615 -1 37 C-1.66 37 -2.32 37 -3 37 C-3.66 39.31 -4.32 41.62 -5 44 C-5.66 44 -6.32 44 -7 44 C-7 44.66 -7 45.32 -7 46 C-7.66 46 -8.32 46 -9 46 C-8.5875 44.783125 -8.175 43.56625 -7.75 42.3125 C-7.47800781 41.47460938 -7.20601563 40.63671875 -6.92578125 39.7734375 C-6.3178236 37.95212977 -5.67027486 36.14347262 -4.98046875 34.3515625 C-1.01082318 23.26034305 -0.70207584 11.67129736 0 0 Z " fill="#093247" transform="translate(343,256)"/>
<path d="M0 0 C0.66 0.33 1.32 0.66 2 1 C1.67 1.66 1.34 2.32 1 3 C0.34 3 -0.32 3 -1 3 C-1 3.66 -1 4.32 -1 5 C-2.6796875 6.2890625 -2.6796875 6.2890625 -4.875 7.625 C-5.59429687 8.07101562 -6.31359375 8.51703125 -7.0546875 8.9765625 C-9 10 -9 10 -11 10 C-11.0928125 10.928125 -11.0928125 10.928125 -11.1875 11.875 C-12 14 -12 14 -14.0625 15.1875 C-16.98249714 15.99515878 -19.8052949 16.33909322 -22.8125 16.65234375 C-25.98529209 17.15659106 -28.9059985 18.19640234 -31.921875 19.28125 C-36.078125 20.71875 -36.078125 20.71875 -38 21 C-38.99 20.34 -39.98 19.68 -41 19 C-39.09541016 18.48953125 -39.09541016 18.48953125 -37.15234375 17.96875 C-23.32597828 14.127194 -10.96593958 9.55792619 0 0 Z " fill="#211A10" transform="translate(317,322)"/>
<path d="M0 0 C0.33 0 0.66 0 1 0 C1.33 14.52 1.66 29.04 2 44 C2.66 43.01 3.32 42.02 4 41 C6.31 41.66 8.62 42.32 11 43 C7.2261493 48.10579801 6.57595543 48.80801486 0 51 C0 34.17 0 17.34 0 0 Z " fill="#FB9E5E" transform="translate(212,360)"/>
<path d="M0 0 C0.66 0.33 1.32 0.66 2 1 C3.12674967 5.10458807 3.43294677 7.18007365 1.41796875 10.99609375 C-1.31185808 14.38742951 -3.7038241 15.89956865 -7.5625 17.875 C-8.69816406 18.47054688 -9.83382813 19.06609375 -11.00390625 19.6796875 C-14 21 -14 21 -17 21 C-17 20.34 -17 19.68 -17 19 C-12.61538462 16 -12.61538462 16 -10 16 C-9.67 14.68 -9.34 13.36 -9 12 C-9 12.66 -9 13.32 -9 14 C-8.34 13.67 -7.68 13.34 -7 13 C-7 11.68 -7 10.36 -7 9 C-5.25 7.25 -5.25 7.25 -3 6 C-1.68 6 -0.36 6 1 6 C0.67 5.67 0.34 5.34 0 5 C-0.04063832 3.33382885 -0.042721 1.66611905 0 0 Z " fill="#EDCA67" transform="translate(312,314)"/>
<path d="M0 0 C28.05 0 56.1 0 85 0 C85 0.33 85 0.66 85 1 C59.59 1 34.18 1 8 1 C8 1.66 8 2.32 8 3 C5.36 2.67 2.72 2.34 0 2 C0 1.34 0 0.68 0 0 Z " fill="#1DB1E3" transform="translate(155,188)"/>
<path d="M0 0 C3.23891184 1.04788324 5.57636566 2.3579313 8.125 4.5625 C10.80604196 7.14217763 10.80604196 7.14217763 14 8 C15.6875 11.0625 15.6875 11.0625 17 14 C17.99 14 18.98 14 20 14 C19.9175 14.99 19.835 15.98 19.75 17 C19.70872209 21.06174683 21.18069541 23.76548048 23.22265625 27.203125 C24 29 24 29 23 32 C22.56429688 31.154375 22.12859375 30.30875 21.6796875 29.4375 C18.2410804 22.8877722 14.74163806 16.71008934 10 11 C9.22462891 10.06027344 9.22462891 10.06027344 8.43359375 9.1015625 C5.75627588 5.92098939 2.99949633 2.88413108 0 0 Z " fill="#143957" transform="translate(314,203)"/>
<path d="M0 0 C1.29349365 0.00523682 2.5869873 0.01047363 3.91967773 0.01586914 C4.9496714 0.01799156 4.9496714 0.01799156 6.00047302 0.02015686 C8.20144949 0.0257706 10.40232557 0.03832532 12.60327148 0.05102539 C14.09220231 0.05603863 15.58113473 0.06060184 17.07006836 0.06469727 C20.72700223 0.07574446 24.38387707 0.09301826 28.04077148 0.11352539 C28.04077148 0.44352539 28.04077148 0.77352539 28.04077148 1.11352539 C20.56529032 2.01768726 13.2214862 2.19518423 5.70507812 1.98852539 C3.81677174 1.95745991 1.92738972 2.02786498 0.04077148 2.11352539 C-2.90115636 5.05545323 -2.31460248 8.23543512 -2.37329102 12.18383789 C-2.39265717 12.98006561 -2.41202332 13.77629333 -2.43197632 14.59664917 C-2.49183325 17.14383173 -2.5381813 19.69105934 -2.58422852 22.23852539 C-2.62240273 23.96380569 -2.66145413 25.68906682 -2.70141602 27.41430664 C-2.79753961 31.64722415 -2.88154759 35.88023088 -2.95922852 40.11352539 C-3.28922852 40.11352539 -3.61922852 40.11352539 -3.95922852 40.11352539 C-3.98387627 34.57764006 -4.00206347 29.04178639 -4.01416016 23.50585938 C-4.01920096 21.62108809 -4.0260335 19.73632074 -4.03466797 17.8515625 C-4.04674469 15.14850903 -4.0524592 12.44550708 -4.05688477 9.74243164 C-4.06204605 8.89451553 -4.06720734 8.04659943 -4.07252502 7.17298889 C-4.07272046 5.15281471 -4.02129062 3.13274605 -3.95922852 1.11352539 C-2.95922852 0.11352539 -2.95922852 0.11352539 0 0 Z " fill="#1C2231" transform="translate(234.959228515625,345.886474609375)"/>
<path d="M0 0 C0.33 0 0.66 0 1 0 C1 11.88 1 23.76 1 36 C1.66 36.33 2.32 36.66 3 37 C0.17588235 37.94137255 -1.52918032 38.11725382 -4.44921875 38.09765625 C-5.29677734 38.09443359 -6.14433594 38.09121094 -7.01757812 38.08789062 C-8.33918945 38.07532227 -8.33918945 38.07532227 -9.6875 38.0625 C-10.58017578 38.05798828 -11.47285156 38.05347656 -12.39257812 38.04882812 C-14.59511987 38.03704983 -16.79752599 38.02060164 -19 38 C-19 37.67 -19 37.34 -19 37 C-17.78441406 36.87882812 -16.56882813 36.75765625 -15.31640625 36.6328125 C-13.73171883 36.46402922 -12.1470861 36.29473184 -10.5625 36.125 C-9.76005859 36.04636719 -8.95761719 35.96773438 -8.13085938 35.88671875 C-6.07829006 35.66154237 -4.03706991 35.33777413 -2 35 C-0.72893541 32.45787083 -0.90233422 30.7134165 -0.9375 27.87109375 C-0.94523437 26.83533203 -0.95296875 25.79957031 -0.9609375 24.73242188 C-0.98665504 22.56314717 -1.01268844 20.39387619 -1.0390625 18.22460938 C-1.08476313 12.05121607 -0.82204486 6.1203809 0 0 Z " fill="#E85059" transform="translate(210,375)"/>
<path d="M0 0 C0.33 0 0.66 0 1 0 C1.09765625 6.15234375 1.09765625 6.15234375 1 8 C0.67 8.33 0.34 8.66 0 9 C0.04125 9.9075 0.0825 10.815 0.125 11.75 C-0.01839809 15.47835036 -0.72728103 17.07793275 -3 20 C-3.680625 20.33 -4.36125 20.66 -5.0625 21 C-7.27436582 21.89415374 -7.27436582 21.89415374 -8.25 24.625 C-8.4975 25.40875 -8.745 26.1925 -9 27 C-10.65 26.67 -12.3 26.34 -14 26 C-14 25.34 -14 24.68 -14 24 C-13.01 24 -12.02 24 -11 24 C-11 22.35 -11 20.7 -11 19 C-10.05125 18.731875 -9.1025 18.46375 -8.125 18.1875 C-4.74732727 17.25013412 -4.74732727 17.25013412 -3 14 C-2.39578508 11.61917147 -1.8609677 9.22024906 -1.375 6.8125 C-1.11460937 5.54019531 -0.85421875 4.26789063 -0.5859375 2.95703125 C-0.39257812 1.98121094 -0.19921875 1.00539063 0 0 Z " fill="#1F2129" transform="translate(231,387)"/>
<path d="M0 0 C2.4653877 2.21884893 3.79566998 4.28225559 5.125 7.3125 C5.45757812 8.05113281 5.79015625 8.78976563 6.1328125 9.55078125 C8.02221105 14.88705552 8.19281434 20.26306113 8.1875 25.875 C8.1884668 26.93074219 8.1884668 26.93074219 8.18945312 28.0078125 C8.13854357 33.0062047 7.57510871 37.27467386 6 42 C5.67 42 5.34 42 5 42 C5.00785522 40.70582153 5.00785522 40.70582153 5.01586914 39.38549805 C5.03291996 36.18188727 5.04545453 32.97829964 5.05493164 29.7746582 C5.05995777 28.38858275 5.06677966 27.00251259 5.07543945 25.61645508 C5.08758018 23.62323285 5.09271021 21.62997181 5.09765625 19.63671875 C5.10289307 18.43748779 5.10812988 17.23825684 5.11352539 16.00268555 C5.13845618 12.94843549 5.13845618 12.94843549 4 10 C3.34 9.67 2.68 9.34 2 9 C1.3671875 6.93359375 1.3671875 6.93359375 0.875 4.4375 C0.70742188 3.61121094 0.53984375 2.78492188 0.3671875 1.93359375 C0.24601562 1.29550781 0.12484375 0.65742188 0 0 Z " fill="#073A57" transform="translate(291,238)"/>
<path d="M0 0 C0.99 0 1.98 0 3 0 C1.12619312 3.90899425 -1.15488466 7.50902427 -3.46484375 11.171875 C-7.12934919 17.92277052 -8.46926419 23.84304089 -8.6875 31.5 C-8.72166016 32.32242188 -8.75582031 33.14484375 -8.79101562 33.9921875 C-8.8724988 35.9943455 -8.93794575 37.99714568 -9 40 C-9.33 40 -9.66 40 -10 40 C-10.05800828 36.39590081 -10.09359869 32.79192149 -10.125 29.1875 C-10.14175781 28.16333984 -10.15851563 27.13917969 -10.17578125 26.08398438 C-10.18222656 25.10107422 -10.18867188 24.11816406 -10.1953125 23.10546875 C-10.20578613 22.19949951 -10.21625977 21.29353027 -10.22705078 20.36010742 C-10 18 -10 18 -8 15 C-7.33841957 12.95415921 -7.33841957 12.95415921 -6.875 10.8125 C-6.441875 8.9253125 -6.441875 8.9253125 -6 7 C-5.34 7 -4.68 7 -4 7 C-3.67 6.01 -3.34 5.02 -3 4 C-2.34 3.67 -1.68 3.34 -1 3 C-0.67 2.01 -0.34 1.02 0 0 Z " fill="#2D93C1" transform="translate(217,235)"/>
<path d="M0 0 C0.99 0.495 0.99 0.495 2 1 C2.4140625 3.50390625 2.4140625 3.50390625 2.625 6.5625 C2.69976562 7.57441406 2.77453125 8.58632813 2.8515625 9.62890625 C2.92503906 10.80259766 2.92503906 10.80259766 3 12 C3.69480469 11.98839844 4.38960937 11.97679687 5.10546875 11.96484375 C15.75777322 11.87033661 26.36574842 12.43292035 37 13 C37 13.33 37 13.66 37 14 C25.12 14 13.24 14 1 14 C0.67 9.38 0.34 4.76 0 0 Z " fill="#C07D3F" transform="translate(229,329)"/>
<path d="M0 0 C1.01243785 3.03731356 1.00685724 4.40386023 0.625 7.5 C0.53476563 8.2734375 0.44453125 9.046875 0.3515625 9.84375 C0 12 0 12 -1 15 C-0.67 15.66 -0.34 16.32 0 17 C0.07033769 18.87379605 0.0843022 20.75001102 0.0625 22.625 C0.05347656 23.62789063 0.04445312 24.63078125 0.03515625 25.6640625 C0.02355469 26.43492187 0.01195312 27.20578125 0 28 C-0.99 28 -1.98 28 -3 28 C-3.08820927 24.83351345 -3.1407905 21.66734908 -3.1875 18.5 C-3.21263672 17.613125 -3.23777344 16.72625 -3.26367188 15.8125 C-3.32980166 9.81673298 -2.44131875 5.48495762 0 0 Z " fill="#0C2D4B" transform="translate(211,249)"/>
<path d="M0 0 C5.93731349 4.41846585 10.45535286 9.5895935 12 17 C12.07708723 18.36800819 12.10803609 19.73923592 12.09765625 21.109375 C12.09443359 21.86347656 12.09121094 22.61757812 12.08789062 23.39453125 C12.07951172 24.17183594 12.07113281 24.94914062 12.0625 25.75 C12.05798828 26.54277344 12.05347656 27.33554688 12.04882812 28.15234375 C12.03708565 30.10159508 12.01915146 32.05080738 12 34 C11.67 34 11.34 34 11 34 C10.97421875 33.20078125 10.9484375 32.4015625 10.921875 31.578125 C10.51510909 23.7016579 9.68441787 16.09336525 6 9 C2.99499259 6.65292747 2.99499259 6.65292747 0 6 C0.33 5.01 0.66 4.02 1 3 C0.67 2.01 0.34 1.02 0 0 Z " fill="#083555" transform="translate(169,196)"/>
<path d="M0 0 C3.4375 1.3125 3.4375 1.3125 7 3 C7.33 3.99 7.66 4.98 8 6 C10.97 6.495 10.97 6.495 14 7 C13.67 7.66 13.34 8.32 13 9 C12.46375 8.81824219 11.9275 8.63648438 11.375 8.44921875 C3.38197014 5.88566477 -4.74847096 4.4435057 -13 3 C-13 2.67 -13 2.34 -13 2 C-8.71 2 -4.42 2 0 2 C0 1.34 0 0.68 0 0 Z " fill="#163D5C" transform="translate(285,185)"/>
<path d="M0 0 C5.51152105 0.35518691 10.36441534 0.72117182 15 4 C16.375 7.1875 16.375 7.1875 17 10 C12.545 8.02 12.545 8.02 8 6 C8 5.34 8 4.68 8 4 C7.236875 4.04125 6.47375 4.0825 5.6875 4.125 C3 4 3 4 0 2 C0 1.34 0 0.68 0 0 Z " fill="#0D263F" transform="translate(154,191)"/>
<path d="M0 0 C1.65 0 3.3 0 5 0 C3.11812157 5.21484385 -1.1332106 6.53466002 -5.8671875 8.8046875 C-9.92736236 10.35383152 -12.72012891 10.49383128 -17 10 C-13.81237635 7.87491756 -11.73487777 7.4979837 -8 7 C-8 6.34 -8 5.68 -8 5 C-6.865625 4.731875 -5.73125 4.46375 -4.5625 4.1875 C-3.386875 3.795625 -2.21125 3.40375 -1 3 C-0.67 2.01 -0.34 1.02 0 0 Z " fill="#232E36" transform="translate(283,293)"/>
<path d="M0 0 C0.33 0.66 0.66 1.32 1 2 C0.34 2 -0.32 2 -1 2 C-1.23460937 2.55171875 -1.46921875 3.1034375 -1.7109375 3.671875 C-3.32848158 6.59325764 -5.36450195 8.79574497 -7.625 11.25 C-8.44226563 12.14203125 -9.25953125 13.0340625 -10.1015625 13.953125 C-10.72804688 14.62859375 -11.35453125 15.3040625 -12 16 C-12.66 15.01 -13.32 14.02 -14 13 C-13.34 12.67 -12.68 12.34 -12 12 C-11.27840576 10.35636866 -10.60648579 8.68949614 -10 7 C-9.01 7 -8.02 7 -7 7 C-6.67 5.68 -6.34 4.36 -6 3 C-5.34 3 -4.68 3 -4 3 C-4 2.34 -4 1.68 -4 1 C-2.68 0.67 -1.36 0.34 0 0 Z " fill="#6D737F" transform="translate(343,381)"/>
<path d="M0 0 C1.1171875 3.71875 1.1171875 3.71875 0.0625 6.25 C-0.288125 6.8275 -0.63875 7.405 -1 8 C-1.66 8 -2.32 8 -3 8 C-3 9.32 -3 10.64 -3 12 C-3.66 12 -4.32 12 -5 12 C-5 12.99 -5 13.98 -5 15 C-6.63631892 16.04892238 -8.30485863 17.04906703 -10 18 C-10.33 18.66 -10.66 19.32 -11 20 C-11.66 20 -12.32 20 -13 20 C-12.60550788 16.44957089 -11.08349008 15.0573911 -8.54296875 12.703125 C-5.11882222 8.92356073 -2.64054015 4.34509633 0 0 Z " fill="#07313D" transform="translate(333,302)"/>
<path d="M0 0 C1.61648438 0.01353516 1.61648438 0.01353516 3.265625 0.02734375 C4.08546875 0.03894531 4.9053125 0.05054688 5.75 0.0625 C-1.19536831 4.69274554 -11.21424403 3.18015566 -19.25 3.125 C-20.50167969 3.12048828 -21.75335938 3.11597656 -23.04296875 3.11132812 C-26.11202941 3.09961415 -29.18098907 3.08321073 -32.25 3.0625 C-32.25 2.7325 -32.25 2.4025 -32.25 2.0625 C-18.5779472 0.98717 -18.5779472 0.98717 -13.625 1.0625 C-10.47825609 1.21040499 -10.47825609 1.21040499 -8.4296875 0.56640625 C-5.58232557 -0.09185484 -2.91879717 -0.03172606 0 0 Z " fill="#D4984C" transform="translate(277.25,338.9375)"/>
<path d="M0 0 C0.66 0.33 1.32 0.66 2 1 C1.34 4.3 0.68 7.6 0 11 C-0.66 11 -1.32 11 -2 11 C-2.66 13.31 -3.32 15.62 -4 18 C-4.66 18 -5.32 18 -6 18 C-6 18.66 -6 19.32 -6 20 C-6.66 20 -7.32 20 -8 20 C-5.83836487 13.06001352 -3.1063786 6.56882431 0 0 Z " fill="#0B2D3C" transform="translate(342,282)"/>
<path d="M0 0 C3.96 1.98 3.96 1.98 8 4 C7.814375 5.2375 7.62875 6.475 7.4375 7.75 C7.05288777 10.76279577 6.9125406 13.10010827 8 16 C7.34 16 6.68 16 6 16 C4.9901527 14.08850332 3.99245505 12.17058431 3 10.25 C2.443125 9.18265625 1.88625 8.1153125 1.3125 7.015625 C0 4 0 4 0 0 Z " fill="#1CA2CF" transform="translate(176,200)"/>
<path d="M0 0 C-0.33 1.32 -0.66 2.64 -1 4 C-3.31 4.33 -5.62 4.66 -8 5 C-8.0825 5.61875 -8.165 6.2375 -8.25 6.875 C-9 9 -9 9 -10.9375 10.1875 C-11.618125 10.455625 -12.29875 10.72375 -13 11 C-13.99 11.495 -13.99 11.495 -15 12 C-15 12.99 -15 13.98 -15 15 C-15.66 15 -16.32 15 -17 15 C-17 14.34 -17 13.68 -17 13 C-17.66 12.67 -18.32 12.34 -19 12 C-17.71283353 10.99421411 -16.42011342 9.99553202 -15.125 9 C-14.40570313 8.443125 -13.68640625 7.88625 -12.9453125 7.3125 C-11 6 -11 6 -9 6 C-9 5.34 -9 4.68 -9 4 C-2.25 0 -2.25 0 0 0 Z " fill="#747C8A" transform="translate(136,143)"/>
<path d="M0 0 C5.61995805 8.42993708 4.22013796 20.2527805 4 30 C3.67 30 3.34 30 3 30 C2.86722656 29.09636719 2.73445313 28.19273437 2.59765625 27.26171875 C2.42105469 26.08222656 2.24445313 24.90273438 2.0625 23.6875 C1.88847656 22.51574219 1.71445312 21.34398437 1.53515625 20.13671875 C1.07906969 16.98358597 1.07906969 16.98358597 0 14 C-0.06970052 11.60509014 -0.08448003 9.20832309 -0.0625 6.8125 C-0.05347656 5.54019531 -0.04445313 4.26789063 -0.03515625 2.95703125 C-0.02355469 1.98121094 -0.01195312 1.00539062 0 0 Z " fill="#1C8D9C" transform="translate(339,242)"/>
<path d="M0 0 C0.33 0 0.66 0 1 0 C1.46177215 19.00962025 1.46177215 19.00962025 -1 26 C-4 28 -4 28 -6.1875 27.625 C-7.0846875 27.315625 -7.0846875 27.315625 -8 27 C-7.401875 26.360625 -6.80375 25.72125 -6.1875 25.0625 C-0.76963407 17.4774877 -0.40757018 9.0930313 0 0 Z " fill="#2D1E18" transform="translate(230,377)"/>
<path d="M0 0 C3.96 0.99 3.96 0.99 8 2 C3 8.57142857 3 8.57142857 -2 10 C-2 6.09567131 -1.31626692 3.61973402 0 0 Z " fill="#EAA052" transform="translate(215,401)"/>
<path d="M0 0 C4 1 4 1 6 4 C5.9375 6.5625 5.9375 6.5625 5 9 C3.35 9.66 1.7 10.32 0 11 C0 7.37 0 3.74 0 0 Z " fill="#F5D473" transform="translate(213,304)"/>
<path d="M0 0 C2 1.375 2 1.375 4 3 C4 3.66 4 4.32 4 5 C3.0409375 5.37125 3.0409375 5.37125 2.0625 5.75 C-0.18741541 6.81562433 -0.18741541 6.81562433 -0.75 9.125 C-0.8325 9.74375 -0.915 10.3625 -1 11 C-2.65 10.67 -4.3 10.34 -6 10 C-6 9.01 -6 8.02 -6 7 C-5.34 6.67 -4.68 6.34 -4 6 C-2.86649466 3.98330173 -2.86649466 3.98330173 -2 2 C-1.34 2 -0.68 2 0 2 C0 1.34 0 0.68 0 0 Z " fill="#07C2B8" transform="translate(323,306)"/>
<path d="M0 0 C5.88307907 3.33904488 8.09359065 5.40089073 10 12 C9.34 12.66 8.68 13.32 8 14 C4 8.25 4 8.25 4 6 C2.68 5.34 1.36 4.68 0 4 C0 2.68 0 1.36 0 0 Z " fill="#082C48" transform="translate(283,231)"/>
<path d="M0 0 C0 3 0 3 0 3 Z M-5 2 C-3.68 2.66 -2.36 3.32 -1 4 C-1.99 4.495 -1.99 4.495 -3 5 C-3.226875 5.78375 -3.45375 6.5675 -3.6875 7.375 C-5.59138368 11.18276737 -8.08096216 11.60508823 -12 13 C-12.969375 13.391875 -13.93875 13.78375 -14.9375 14.1875 C-15.618125 14.455625 -16.29875 14.72375 -17 15 C-17 14.34 -17 13.68 -17 13 C-15.3203125 11.7109375 -15.3203125 11.7109375 -13.125 10.375 C-12.40570313 9.92898438 -11.68640625 9.48296875 -10.9453125 9.0234375 C-9 8 -9 8 -7 8 C-7 7.34 -7 6.68 -7 6 C-6.34 6 -5.68 6 -5 6 C-5 4.68 -5 3.36 -5 2 Z " fill="#18212C" transform="translate(323,319)"/>
<path d="M0 0 C0.99 0 1.98 0 3 0 C1.33248852 3.94139078 -1.22710649 6.7892812 -4 10 C-6.95929119 7.24479785 -9.03681826 4.53372712 -11 1 C-9.68 1.33 -8.36 1.66 -7 2 C-7 2.99 -7 3.98 -7 5 C-5.35 5.33 -3.7 5.66 -2 6 C-1.855625 5.195625 -1.71125 4.39125 -1.5625 3.5625 C-1 1 -1 1 0 0 Z " fill="#29B39F" transform="translate(324,311)"/>
<path d="M0 0 C0.66 0.33 1.32 0.66 2 1 C1.67 1.99 1.34 2.98 1 4 C0.01 4 -0.98 4 -2 4 C-2.66 5.65 -3.32 7.3 -4 9 C-5.45635371 9.22174933 -6.91522956 9.42698698 -8.375 9.625 C-9.18710938 9.74101562 -9.99921875 9.85703125 -10.8359375 9.9765625 C-11.55007812 9.98429687 -12.26421875 9.99203125 -13 10 C-13.66 9.34 -14.32 8.68 -15 8 C-10.05 6.515 -10.05 6.515 -5 5 C-5 4.34 -5 3.68 -5 3 C-2.625 1.3125 -2.625 1.3125 0 0 Z " fill="#1A1B1E" transform="translate(219,407)"/>
<path d="M0 0 C1.65 0 3.3 0 5 0 C4.2733313 0.78842285 4.2733313 0.78842285 3.53198242 1.59277344 C1.5513873 4.70491175 1.57177271 6.84200055 1.48828125 10.515625 C1.45283203 11.76601563 1.41738281 13.01640625 1.38085938 14.3046875 C1.35830078 15.60664063 1.33574219 16.90859375 1.3125 18.25 C1.27833984 19.56742187 1.24417969 20.88484375 1.20898438 22.2421875 C1.12649294 25.49470678 1.0573433 28.74695596 1 32 C0.67 32 0.34 32 0 32 C0 21.44 0 10.88 0 0 Z " fill="#A94B72" transform="translate(182,331)"/>
<path d="M0 0 C0.33 0 0.66 0 1 0 C1.70173653 4.38585329 2.10834375 8.55790643 2 13 C2.66 13 3.32 13 4 13 C3.88610125 14.79240663 3.75852313 16.58394835 3.625 18.375 C3.52058594 19.87160156 3.52058594 19.87160156 3.4140625 21.3984375 C3 24 3 24 1 26 C0.67 17.42 0.34 8.84 0 0 Z " fill="#0992B4" transform="translate(299,246)"/>
<path d="M0 0 C2.31 0 4.62 0 7 0 C8.07637127 3.87493656 7.94566951 5.52452927 6 9 C4.99712471 7.68969568 3.99777175 6.37669473 3 5.0625 C2.443125 4.33160156 1.88625 3.60070312 1.3125 2.84765625 C0 1 0 1 0 0 Z " fill="#D79536" transform="translate(216,304)"/>
<path d="M0 0 C0.33 0 0.66 0 1 0 C1 4.29 1 8.58 1 13 C-3.62 13 -8.24 13 -13 13 C-13 12.67 -13 12.34 -13 12 C-12.28972656 11.93941406 -11.57945312 11.87882812 -10.84765625 11.81640625 C-9.92855469 11.73261719 -9.00945312 11.64882813 -8.0625 11.5625 C-7.14597656 11.48128906 -6.22945312 11.40007812 -5.28515625 11.31640625 C-3.03840268 11.23955024 -3.03840268 11.23955024 -2 10 C-1.6068352 8.32115762 -1.25914548 6.63149955 -0.9375 4.9375 C-0.76089844 4.01839844 -0.58429688 3.09929687 -0.40234375 2.15234375 C-0.26957031 1.44207031 -0.13679687 0.73179687 0 0 Z " fill="#F4E28A" transform="translate(229,291)"/>
<path d="M0 0 C0 0.66 0 1.32 0 2 C-3.3 2.33 -6.6 2.66 -10 3 C-10.66 2.01 -11.32 1.02 -12 0 C-7.44729118 -2.48329572 -4.775353 -1.68541871 0 0 Z " fill="#F5CD5F" transform="translate(295,300)"/>
<path d="M0 0 C6.09549711 0.28219894 12.09543773 1.05883389 17 5 C17.71875 7.13671875 17.71875 7.13671875 18 9 C17.01 8.67 16.02 8.34 15 8 C15 7.01 15 6.02 15 5 C12.36 4.67 9.72 4.34 7 4 C7 3.34 7 2.68 7 2 C4.69 1.67 2.38 1.34 0 1 C0 0.67 0 0.34 0 0 Z " fill="#091F39" transform="translate(266,226)"/>
<path d="M0 0 C4.07763771 2.86536704 6.02677065 5.43041625 8 10 C6.37660195 11.70884005 4.70680947 13.37446717 3 15 C2.34 15 1.68 15 1 15 C1.350625 14.484375 1.70125 13.96875 2.0625 13.4375 C3.64499072 9.32302413 2.66245032 5.51973897 0.9375 1.5625 C0.628125 1.046875 0.31875 0.53125 0 0 Z " fill="#D5DD8A" transform="translate(311,311)"/>
<path d="M0 0 C0.53625 0.38671875 1.0725 0.7734375 1.625 1.171875 C1.01011719 1.43742187 0.39523437 1.70296875 -0.23828125 1.9765625 C-1.04652344 2.32976562 -1.85476563 2.68296875 -2.6875 3.046875 C-3.88826172 3.56894531 -3.88826172 3.56894531 -5.11328125 4.1015625 C-7.5711834 5.19759394 -7.5711834 5.19759394 -10.375 7.171875 C-12.41796875 7.3671875 -12.41796875 7.3671875 -14.5625 7.296875 C-16.4496875 7.235 -16.4496875 7.235 -18.375 7.171875 C-17.83875 6.90890625 -17.3025 6.6459375 -16.75 6.375 C-14.98335002 5.48005231 -13.23605406 4.54669272 -11.5 3.59375 C-10.46875 3.04203125 -9.4375 2.4903125 -8.375 1.921875 C-7.34375 1.35984375 -6.3125 0.7978125 -5.25 0.21875 C-2.375 -0.828125 -2.375 -0.828125 0 0 Z " fill="#E2C77A" transform="translate(288.375,296.828125)"/>
<path d="M0 0 C0.33 0 0.66 0 1 0 C1.09765625 6.15234375 1.09765625 6.15234375 1 8 C0.67 8.33 0.34 8.66 0 9 C0.04125 9.9075 0.0825 10.815 0.125 11.75 C-0.01531801 15.39826814 -0.92402735 17.05903874 -3 20 C-3.99 19.67 -4.98 19.34 -6 19 C-5.34 17.35 -4.68 15.7 -4 14 C-3.67 14 -3.34 14 -3 14 C-2.01 9.38 -1.02 4.76 0 0 Z " fill="#1B2334" transform="translate(231,387)"/>
<path d="M0 0 C0.33 0.66 0.66 1.32 1 2 C0.0625 4.125 0.0625 4.125 -1 6 C-0.46375 6.103125 0.0725 6.20625 0.625 6.3125 C3.62502044 7.18092697 6.2379535 8.55620296 9 10 C9 10.66 9 11.32 9 12 C4.1725201 10.58707905 0.2837641 8.57025846 -4 6 C-2.68 4.02 -1.36 2.04 0 0 Z " fill="#349D95" transform="translate(292,289)"/>
<path d="M0 0 C0.66 0 1.32 0 2 0 C2 5.61 2 11.22 2 17 C1.34 17 0.68 17 0 17 C-0.19436491 14.54203147 -0.3807742 12.08390706 -0.5625 9.625 C-0.61857422 8.92632812 -0.67464844 8.22765625 -0.73242188 7.5078125 C-1.11328125 2.2265625 -1.11328125 2.2265625 0 0 Z " fill="#4D577D" transform="translate(209,277)"/>
<path d="M0 0 C2 3 2 3 2 5 C1.01 5 0.02 5 -1 5 C-0.34 5.33 0.32 5.66 1 6 C0.67 7.32 0.34 8.64 0 10 C-1.32 10.33 -2.64 10.66 -4 11 C-4 11.99 -4 12.98 -4 14 C-4.66 14 -5.32 14 -6 14 C-4.50829734 9.0276578 -2.39542583 4.58154261 0 0 Z " fill="#757C8B" transform="translate(74,207)"/>
<path d="M0 0 C2.33333333 0 4.66666667 0 7 0 C7 0.99 7 1.98 7 3 C7.99 3.66 8.98 4.32 10 5 C9.67 5.99 9.34 6.98 9 8 C5.18284914 6.44486447 2.77292558 4.00400272 0 1 C0 0.67 0 0.34 0 0 Z " fill="#17AEDF" transform="translate(166,192)"/>
<path d="M0 0 C1.30249153 3.59855032 0.69931441 5.58099473 -0.75 9.0625 C-1.09546875 9.91972656 -1.4409375 10.77695312 -1.796875 11.66015625 C-2.96264917 13.92735991 -4.09652606 15.33172543 -6 17 C-6 15.68 -6 14.36 -6 13 C-5.34 13 -4.68 13 -4 13 C-4 11.68 -4 10.36 -4 9 C-3.34 9 -2.68 9 -2 9 C-2 6.69 -2 4.38 -2 2 C-1.34 2 -0.68 2 0 2 C0 1.34 0 0.68 0 0 Z " fill="#D8A15F" transform="translate(229,386)"/>
<path d="M0 0 C0.97560328 3.4582952 0.81770807 5.4838553 0 9 C-0.34403308 11.33177975 -0.67949202 13.66487041 -1 16 C-2.32 16.33 -3.64 16.66 -5 17 C-4.35083537 10.99522721 -2.14204997 5.599219 0 0 Z " fill="#7F8491" transform="translate(67,222)"/>
<path d="M0 0 C2.31 0 4.62 0 7 0 C6.75 1.875 6.75 1.875 6 4 C4.1875 5.3125 4.1875 5.3125 2 6 C-0.25 5.625 -0.25 5.625 -2 5 C-1.34 5 -0.68 5 0 5 C0 3.35 0 1.7 0 0 Z " fill="#1E98D0" transform="translate(224,226)"/>
<path d="M0 0 C0.66 0.33 1.32 0.66 2 1 C1.52433594 2.19496094 1.52433594 2.19496094 1.0390625 3.4140625 C-0.2264119 7.78137639 -0.4519015 11.85280178 -0.625 16.375 C-0.66367188 17.20644531 -0.70234375 18.03789062 -0.7421875 18.89453125 C-0.83574246 20.92935156 -0.91892713 22.96464416 -1 25 C-1.33 25 -1.66 25 -2 25 C-2.05800828 21.39590081 -2.09359869 17.79192149 -2.125 14.1875 C-2.14175781 13.16333984 -2.15851563 12.13917969 -2.17578125 11.08398438 C-2.18222656 10.10107422 -2.18867188 9.11816406 -2.1953125 8.10546875 C-2.20578613 7.19949951 -2.21625977 6.29353027 -2.22705078 5.36010742 C-2 3 -2 3 0 0 Z " fill="#3877A7" transform="translate(209,250)"/>
<path d="M0 0 C2.31242092 2.16323247 4.0156396 4.37647804 5.6875 7.0625 C6.12449219 7.75472656 6.56148438 8.44695312 7.01171875 9.16015625 C8 11 8 11 8 13 C6.68 12.67 5.36 12.34 4 12 C3.87625 11.195625 3.7525 10.39125 3.625 9.5625 C3.315625 8.2940625 3.315625 8.2940625 3 7 C2.34 6.67 1.68 6.34 1 6 C0.375 2.9375 0.375 2.9375 0 0 Z " fill="#1786AF" transform="translate(326,216)"/>
<path d="M0 0 C1 3 1 3 1 5 C1.33 5.66 1.66 6.32 2 7 C2.99 7 3.98 7 5 7 C3.25 10.875 3.25 10.875 1 12 C0.32880451 10.5437455 -0.33681807 9.08492133 -1 7.625 C-1.37125 6.81289063 -1.7425 6.00078125 -2.125 5.1640625 C-3 3 -3 3 -3 1 C-2.01 0.67 -1.02 0.34 0 0 Z " fill="#D88F30" transform="translate(226,312)"/>
<path d="M0 0 C1.72880982 -0.05449838 3.45812712 -0.09301688 5.1875 -0.125 C6.15042969 -0.14820313 7.11335938 -0.17140625 8.10546875 -0.1953125 C11.12812778 0.0086456 13.26769985 0.73125368 16 2 C16 2.99 16 3.98 16 5 C10.72 3.68 5.44 2.36 0 1 C0 0.67 0 0.34 0 0 Z " fill="#1D80AF" transform="translate(266,225)"/>
<path d="M0 0 C0.33 0 0.66 0 1 0 C1 4.62 1 9.24 1 14 C-0.32 13.34 -1.64 12.68 -3 12 C-3 11.34 -3 10.68 -3 10 C-2.34 10 -1.68 10 -1 10 C-1.0309375 8.3603125 -1.0309375 8.3603125 -1.0625 6.6875 C-1 3 -1 3 0 0 Z " fill="#76476A" transform="translate(210,312)"/>
<path d="M0 0 C2.40672398 2.40672398 2.79132175 4.11378549 3.6875 7.375 C4.09548828 8.80972656 4.09548828 8.80972656 4.51171875 10.2734375 C4.9947433 12.97064661 4.9004538 14.44972144 4 17 C3.67 16.34 3.34 15.68 3 15 C2.01 14.67 1.02 14.34 0 14 C0.33 13.34 0.66 12.68 1 12 C1.18794703 7.86516531 0.7733536 4.06010642 0 0 Z " fill="#727A8B" transform="translate(369,228)"/>
<path d="M0 0 C0.33 0.66 0.66 1.32 1 2 C0.34 2 -0.32 2 -1 2 C-1.268125 2.598125 -1.53625 3.19625 -1.8125 3.8125 C-2.98493467 5.97224808 -4.19369282 7.35790256 -6 9 C-6.33 7.35 -6.66 5.7 -7 4 C-6.01 3.67 -5.02 3.34 -4 3 C-4 2.34 -4 1.68 -4 1 C-2.68 0.67 -1.36 0.34 0 0 Z " fill="#5E6574" transform="translate(343,381)"/>
<path d="M0 0 C1.21065165 3.63195496 0.62784815 5.06531629 -0.4375 8.6875 C-0.86869141 10.17830078 -0.86869141 10.17830078 -1.30859375 11.69921875 C-1.53675781 12.45847656 -1.76492188 13.21773438 -2 14 C-4.78637633 9.8204355 -3.79562512 7.85331323 -3 3 C-2.01 2.67 -1.02 2.34 0 2 C0 1.34 0 0.68 0 0 Z " fill="#666D7B" transform="translate(374,316)"/>
<path d="M0 0 C2 2 2 2 2.1953125 4.6015625 C2.17210937 5.59929687 2.14890625 6.59703125 2.125 7.625 C2.10695312 8.62789063 2.08890625 9.63078125 2.0703125 10.6640625 C2.03550781 11.82035156 2.03550781 11.82035156 2 13 C1.01 13 0.02 13 -1 13 C-0.67 8.71 -0.34 4.42 0 0 Z " fill="#22324D" transform="translate(209,264)"/>
<path d="M0 0 C-1.70828921 2.10633718 -2.52148416 2.93801608 -5.26171875 3.29296875 C-6.06222656 3.25816406 -6.86273438 3.22335937 -7.6875 3.1875 C-8.49574219 3.16042969 -9.30398437 3.13335937 -10.13671875 3.10546875 C-10.75160156 3.07066406 -11.36648437 3.03585937 -12 3 C-12 2.34 -12 1.68 -12 1 C-10.37681021 0.63762737 -8.7513642 0.28534843 -7.125 -0.0625 C-6.22007812 -0.25972656 -5.31515625 -0.45695312 -4.3828125 -0.66015625 C-2 -1 -2 -1 0 0 Z " fill="#E94762" transform="translate(166,410)"/>
<path d="M0 0 C0.33 1.32 0.66 2.64 1 4 C0.195625 4.45375 -0.60875 4.9075 -1.4375 5.375 C-4.08856572 6.74725665 -4.08856572 6.74725665 -5 9 C-5.66 9 -6.32 9 -7 9 C-6.82374165 6.62051228 -6.30280227 5.29774151 -4.59765625 3.62109375 C-3.09350908 2.37884514 -1.54870149 1.18623944 0 0 Z " fill="#052932" transform="translate(327,313)"/>
<path d="M0 0 C-2.72398202 2.72398202 -5.21533204 3.89404569 -9.10546875 4.125 C-11.07075424 4.125 -13.03584268 4.0665816 -15 4 C-10.09731431 0.73154287 -5.86826297 -0.27944109 0 0 Z " fill="#312F2B" transform="translate(281,299)"/>
<path d="M0 0 C0.99 0.33 1.98 0.66 3 1 C2.67 1.99 2.34 2.98 2 4 C2.33 4.99 2.66 5.98 3 7 C5.01508358 7.73323796 5.01508358 7.73323796 7 8 C4 9 4 9 0.8125 7.5625 C-0.115625 7.046875 -1.04375 6.53125 -2 6 C-1.34 4.02 -0.68 2.04 0 0 Z " fill="#0AA6AE" transform="translate(293,289)"/>
<path d="M0 0 C0.66 0.33 1.32 0.66 2 1 C1.55065113 3.12691797 1.09023527 5.25150039 0.625 7.375 C0.36976563 8.55835938 0.11453125 9.74171875 -0.1484375 10.9609375 C-1 14 -1 14 -3 16 C-4.31225809 12.06322574 -3.3393954 10.2205738 -2.0625 6.3125 C-1.68222656 5.13300781 -1.30195313 3.95351562 -0.91015625 2.73828125 C-0.60980469 1.83464844 -0.30945313 0.93101562 0 0 Z " fill="#162730" transform="translate(213,250)"/>
<path d="M0 0 C0 0.99 0 1.98 0 3 C-6.28571429 5.42857143 -6.28571429 5.42857143 -10 4 C-6.95860798 0.50239917 -4.5534811 0 0 0 Z " fill="#232737" transform="translate(170,402)"/>
<path d="M0 0 C2.31 0 4.62 0 7 0 C7.33 1.98 7.66 3.96 8 6 C4.64532525 4.82133049 2.28780716 3.76945078 0 1 C0 0.67 0 0.34 0 0 Z " fill="#414957" transform="translate(95,386)"/>
<path d="M0 0 C2.0625 0.4375 2.0625 0.4375 4 1 C2.7508258 4.45925163 1.32472205 7.14693203 -1 10 C-1 9.34 -1 8.68 -1 8 C-1.66 7.67 -2.32 7.34 -3 7 C-2.34 6.67 -1.68 6.34 -1 6 C-1.0309375 4.7934375 -1.0309375 4.7934375 -1.0625 3.5625 C-1 1 -1 1 0 0 Z " fill="#676E7D" transform="translate(357,354)"/>
<path d="M0 0 C0.33 0.66 0.66 1.32 1 2 C0.3507041 3.34187818 -0.31731862 4.67479497 -1 6 C-1 6.99 -1 7.98 -1 9 C-2.65 9.33 -4.3 9.66 -6 10 C-5.67 8.68 -5.34 7.36 -5 6 C-4.34 6 -3.68 6 -3 6 C-2.690625 5.195625 -2.38125 4.39125 -2.0625 3.5625 C-1 1 -1 1 0 0 Z " fill="#757D8A" transform="translate(88,185)"/>
<path d="M0 0 C0.66 0 1.32 0 2 0 C2 0.66 2 1.32 2 2 C1.34 2 0.68 2 0 2 C-0.061875 2.598125 -0.12375 3.19625 -0.1875 3.8125 C-1.3236757 6.87143458 -3.17330142 7.55041099 -6 9 C-6.33 8.01 -6.66 7.02 -7 6 C-6.34 6 -5.68 6 -5 6 C-4.67 5.01 -4.34 4.02 -4 3 C-3.34 3 -2.68 3 -2 3 C-1.34 2.01 -0.68 1.02 0 0 Z " fill="#1A2E34" transform="translate(230,231)"/>
<path d="M0 0 C0.33 0.66 0.66 1.32 1 2 C3.52733235 2.65555119 3.52733235 2.65555119 6 3 C6 4.32 6 5.64 6 7 C2.62496331 5.8141763 0.35277269 4.72426311 -2 2 C-1.34 2 -0.68 2 0 2 C0 1.34 0 0.68 0 0 Z " fill="#555A6A" transform="translate(133,415)"/>
<path d="M0 0 C0.66 0 1.32 0 2 0 C2.86516528 4.49885947 3.30903272 7.01647791 1 11 C0.63743142 9.5437328 0.28520207 8.08488815 -0.0625 6.625 C-0.35833984 5.40683594 -0.35833984 5.40683594 -0.66015625 4.1640625 C-1 2 -1 2 0 0 Z " fill="#F8C963" transform="translate(225,322)"/>
<path d="M0 0 C0.66 0.33 1.32 0.66 2 1 C2.875 4.3125 2.875 4.3125 3 8 C1.0625 10.4375 1.0625 10.4375 -1 12 C-1.33 10.35 -1.66 8.7 -2 7 C-1.01 6.67 -0.02 6.34 1 6 C0.67 5.67 0.34 5.34 0 5 C-0.04063832 3.33382885 -0.042721 1.66611905 0 0 Z " fill="#F8DA69" transform="translate(312,314)"/>
<path d="M0 0 C0.33 0.66 0.66 1.32 1 2 C1.61875 1.79375 2.2375 1.5875 2.875 1.375 C3.57625 1.25125 4.2775 1.1275 5 1 C7 3 7 3 7 7 C6.34 7 5.68 7 5 7 C5 6.34 5 5.68 5 5 C4.030625 4.71125 3.06125 4.4225 2.0625 4.125 C-1 3 -1 3 -2 1 C-1.34 0.67 -0.68 0.34 0 0 Z " fill="#0E87BE" transform="translate(288,231)"/>
<path d="M0 0 C1.98270912 0.95098266 3.96108379 1.91100703 5.9375 2.875 C7.03964844 3.40867188 8.14179688 3.94234375 9.27734375 4.4921875 C12 6 12 6 13 8 C11.68528432 7.71848913 10.37324233 7.42446661 9.0625 7.125 C8.33160156 6.96257812 7.60070312 6.80015625 6.84765625 6.6328125 C5 6 5 6 4 4 C1.98330173 2.86649466 1.98330173 2.86649466 0 2 C0 1.34 0 0.68 0 0 Z " fill="#2588B5" transform="translate(300,195)"/>
<path d="M0 0 C0.99 0.33 1.98 0.66 3 1 C3 1.66 3 2.32 3 3 C3.66 3 4.32 3 5 3 C6.625 5.5 6.625 5.5 8 8 C7.01 8.495 7.01 8.495 6 9 C5.34 8.34 4.68 7.68 4 7 C3.01 7 2.02 7 1 7 C1.020625 6.21625 1.04125 5.4325 1.0625 4.625 C1.18684063 2.01885039 1.18684063 2.01885039 0 0 Z " fill="#717989" transform="translate(329,166)"/>
<path d="M0 0 C0.66 0 1.32 0 2 0 C0.64531705 4.87685861 -1.71675909 6.48592381 -6 9 C-6 8.01 -6 7.02 -6 6 C-4.37064759 4.62131719 -2.70250393 3.28725907 -1 2 C-0.67 1.34 -0.34 0.68 0 0 Z " fill="#7D8490" transform="translate(106,164)"/>
<path d="M0 0 C0.99 0.66 1.98 1.32 3 2 C3.6875 5.625 3.6875 5.625 4 9 C1.5 6.6875 1.5 6.6875 -1 4 C-1 1 -1 1 0 0 Z " fill="#5E6472" transform="translate(91,377)"/>
<path d="M0 0 C1 3 1 3 0.22265625 5.04296875 C-0.16019531 5.75066406 -0.54304688 6.45835937 -0.9375 7.1875 C-1.31777344 7.90292969 -1.69804687 8.61835938 -2.08984375 9.35546875 C-2.54037109 10.16951172 -2.54037109 10.16951172 -3 11 C-3.66 10.34 -4.32 9.68 -5 9 C-4.67 8.01 -4.34 7.02 -4 6 C-3.65772583 4.66893378 -3.32248257 3.33599921 -3 2 C-2.01 2 -1.02 2 0 2 C0 1.34 0 0.68 0 0 Z " fill="#767B89" transform="translate(367,339)"/>
<path d="M0 0 C3.96 1.98 3.96 1.98 8 4 C7.34 5.32 6.68 6.64 6 8 C5.566875 7.525625 5.13375 7.05125 4.6875 6.5625 C2.97690387 4.76313043 2.97690387 4.76313043 0 4 C0 2.68 0 1.36 0 0 Z " fill="#12ACE1" transform="translate(176,200)"/>
<path d="M0 0 C0.66 0.33 1.32 0.66 2 1 C1.67 1.99 1.34 2.98 1 4 C1.66 4.33 2.32 4.66 3 5 C3 5.66 3 6.32 3 7 C3.66 7.33 4.32 7.66 5 8 C3.35 7.67 1.7 7.34 0 7 C-0.12375 6.360625 -0.2475 5.72125 -0.375 5.0625 C-0.684375 4.0415625 -0.684375 4.0415625 -1 3 C-1.66 2.67 -2.32 2.34 -3 2 C-2.01 1.34 -1.02 0.68 0 0 Z " fill="#16AAA0" transform="translate(302,296)"/>
<path d="M0 0 C1.32 0.33 2.64 0.66 4 1 C4.33 2.65 4.66 4.3 5 6 C3.68 5.67 2.36 5.34 1 5 C0.67 3.35 0.34 1.7 0 0 Z " fill="#0D8DC2" transform="translate(321,213)"/>
<path d="M0 0 C4.56454251 0.54339792 7.9728176 1.79463821 12 4 C11.67 4.66 11.34 5.32 11 6 C9.9275 5.525625 8.855 5.05125 7.75 4.5625 C5.19160135 3.46233668 2.74164983 2.54832997 0 2 C0 1.34 0 0.68 0 0 Z " fill="#2B93C3" transform="translate(288,191)"/>
<path d="M0 0 C0.66 1.32 1.32 2.64 2 4 C0.68 5.32 -0.64 6.64 -2 8 C-2.66 7.34 -3.32 6.68 -4 6 C-1.125 1.125 -1.125 1.125 0 0 Z " fill="#4A5365" transform="translate(111,160)"/>
<path d="M0 0 C1.65 0 3.3 0 5 0 C5.66 1.65 6.32 3.3 7 5 C3.74572241 4.43891766 2.12035493 3.54442592 0 1 C0 0.67 0 0.34 0 0 Z " fill="#212A3A" transform="translate(104,394)"/>
<path d="M0 0 C0.66 0 1.32 0 2 0 C2 2.31 2 4.62 2 7 C0.02 7.99 0.02 7.99 -2 9 C-1.34 6.03 -0.68 3.06 0 0 Z " fill="#1594A4" transform="translate(298,272)"/>
<path d="M0 0 C1.65 0 3.3 0 5 0 C5 0.99 5 1.98 5 3 C3.35 3.66 1.7 4.32 0 5 C0 3.35 0 1.7 0 0 Z " fill="#0996CE" transform="translate(304,201)"/>
<path d="M0 0 C1.0625 1.875 1.0625 1.875 2 4 C1.67 4.66 1.34 5.32 1 6 C-1.0625 6.625 -1.0625 6.625 -3 7 C-3 3 -3 3 -1.5 1.25 C-1.005 0.8375 -0.51 0.425 0 0 Z " fill="#F9D057" transform="translate(308,320)"/>
<path d="M0 0 C-0.61875 0.0825 -1.2375 0.165 -1.875 0.25 C-4.18437567 0.81258459 -4.18437567 0.81258459 -5.25 3.0625 C-5.4975 3.701875 -5.745 4.34125 -6 5 C-6.99 4.01 -7.98 3.02 -9 2 C-3.375 -1.125 -3.375 -1.125 0 0 Z " fill="#808695" transform="translate(166,130)"/>
<path d="M0 0 C0.33 0 0.66 0 1 0 C1 1.65 1 3.3 1 5 C-2.63 4.34 -6.26 3.68 -10 3 C-6.68756695 2.17189174 -4.34023421 1.90721572 -1 2 C-0.67 1.34 -0.34 0.68 0 0 Z " fill="#707984" transform="translate(179,433)"/>
<path d="M0 0 C1.32 0.33 2.64 0.66 4 1 C1.14693203 3.32472205 -1.54074837 4.7508258 -5 6 C-4.67 5.01 -4.34 4.02 -4 3 C-3.01 3 -2.02 3 -1 3 C-0.67 2.01 -0.34 1.02 0 0 Z " fill="#7F858F" transform="translate(298,418)"/>
<path d="M0 0 C1.2065625 0.0309375 1.2065625 0.0309375 2.4375 0.0625 C0.7875 1.7125 -0.8625 3.3625 -2.5625 5.0625 C-3.125 3.125 -3.125 3.125 -3.5625 1.0625 C-2.5625 0.0625 -2.5625 0.0625 0 0 Z " fill="#6B6F7D" transform="translate(311.5625,409.9375)"/>
<path d="M0 0 C0.99 0 1.98 0 3 0 C3.66 1.65 4.32 3.3 5 5 C4.34 5.66 3.68 6.32 3 7 C0 2.25 0 2.25 0 0 Z " fill="#6D727D" transform="translate(72,351)"/>
<path d="M0 0 C2.50298434 2.93828597 3.46930939 5.17902761 4 9 C3.34 8.67 2.68 8.34 2 8 C2 7.01 2 6.02 2 5 C1.01 5 0.02 5 -1 5 C-0.67 3.35 -0.34 1.7 0 0 Z " fill="#89909D" transform="translate(365,218)"/>
<path d="M0 0 C3.93673644 1.31224548 6.22719294 2.91910327 9 6 C2.35384615 4.52307692 2.35384615 4.52307692 0.5625 1.875 C0.376875 1.25625 0.19125 0.6375 0 0 Z " fill="#929CA8" transform="translate(301,144)"/>
<path d="M0 0 C0.99 0.99 1.98 1.98 3 3 C2.03114628 4.68496298 1.03013277 6.35178756 0 8 C-0.33 8 -0.66 8 -1 8 C-0.67 5.36 -0.34 2.72 0 0 Z " fill="#278DB7" transform="translate(211,242)"/>
<path d="M0 0 C0.99 0 1.98 0 3 0 C3 0.66 3 1.32 3 2 C3.66 2 4.32 2 5 2 C5.33 2.99 5.66 3.98 6 5 C5.34 5.66 4.68 6.32 4 7 C2.02 3.535 2.02 3.535 0 0 Z " fill="#162B42" transform="translate(287,238)"/>
<path d="" fill="#FFFFFF" transform="translate(0,0)"/>
<path d="" fill="#FFFFFF" transform="translate(0,0)"/>
<path d="" fill="#FFFFFF" transform="translate(0,0)"/>
<path d="" fill="#FFFFFF" transform="translate(0,0)"/>
<path d="" fill="#FFFFFF" transform="translate(0,0)"/>
<path d="" fill="#FFFFFF" transform="translate(0,0)"/>
<path d="" fill="#FFFFFF" transform="translate(0,0)"/>
<path d="" fill="#FFFFFF" transform="translate(0,0)"/>
<path d="" fill="#FFFFFF" transform="translate(0,0)"/>
<path d="" fill="#FFFFFF" transform="translate(0,0)"/>
<path d="" fill="#FFFFFF" transform="translate(0,0)"/>
<path d="" fill="#FFFFFF" transform="translate(0,0)"/>
<path d="" fill="#FFFFFF" transform="translate(0,0)"/>
<path d="" fill="#FFFFFF" transform="translate(0,0)"/>
<path d="" fill="#FFFFFF" transform="translate(0,0)"/>
<path d="" fill="#FFFFFF" transform="translate(0,0)"/>
<path d="" fill="#FFFFFF" transform="translate(0,0)"/>
<path d="" fill="#FFFFFF" transform="translate(0,0)"/>
<path d="" fill="#FFFFFF" transform="translate(0,0)"/>
<path d="" fill="#FFFFFF" transform="translate(0,0)"/>
<path d="" fill="#FFFFFF" transform="translate(0,0)"/>
<path d="" fill="#FFFFFF" transform="translate(0,0)"/>
<path d="" fill="#FFFFFF" transform="translate(0,0)"/>
<path d="" fill="#FFFFFF" transform="translate(0,0)"/>
<path d="" fill="#FFFFFF" transform="translate(0,0)"/>
<path d="" fill="#FFFFFF" transform="translate(0,0)"/>
<path d="" fill="#FFFFFF" transform="translate(0,0)"/>
<path d="" fill="#FFFFFF" transform="translate(0,0)"/>
<path d="" fill="#FFFFFF" transform="translate(0,0)"/>
<path d="" fill="#FFFFFF" transform="translate(0,0)"/>
<path d="" fill="#FFFFFF" transform="translate(0,0)"/>
<path d="" fill="#FFFFFF" transform="translate(0,0)"/>
<path d="" fill="#FFFFFF" transform="translate(0,0)"/>
<path d="" fill="#FFFFFF" transform="translate(0,0)"/>
<path d="" fill="#FFFFFF" transform="translate(0,0)"/>
<path d="" fill="#FFFFFF" transform="translate(0,0)"/>
<path d="" fill="#FFFFFF" transform="translate(0,0)"/>
<path d="" fill="#FFFFFF" transform="translate(0,0)"/>
<path d="" fill="#FFFFFF" transform="translate(0,0)"/>
<path d="" fill="#FFFFFF" transform="translate(0,0)"/>
<path d="" fill="#FFFFFF" transform="translate(0,0)"/>
<path d="" fill="#FFFFFF" transform="translate(0,0)"/>
<path d="" fill="#FFFFFF" transform="translate(0,0)"/>
<path d="" fill="#FFFFFF" transform="translate(0,0)"/>
<path d="" fill="#FFFFFF" transform="translate(0,0)"/>
<path d="" fill="#FFFFFF" transform="translate(0,0)"/>
<path d="" fill="#FFFFFF" transform="translate(0,0)"/>
<path d="" fill="#FFFFFF" transform="translate(0,0)"/>
<path d="" fill="#FFFFFF" transform="translate(0,0)"/>
<path d="" fill="#FFFFFF" transform="translate(0,0)"/>
<path d="" fill="#FFFFFF" transform="translate(0,0)"/>
<path d="" fill="#FFFFFF" transform="translate(0,0)"/>
<path d="" fill="#FFFFFF" transform="translate(0,0)"/>
<path d="" fill="#FFFFFF" transform="translate(0,0)"/>
<path d="" fill="#FFFFFF" transform="translate(0,0)"/>
<path d="" fill="#FFFFFF" transform="translate(0,0)"/>
<path d="" fill="#FFFFFF" transform="translate(0,0)"/>
<path d="" fill="#FFFFFF" transform="translate(0,0)"/>
<path d="" fill="#FFFFFF" transform="translate(0,0)"/>
<path d="" fill="#FFFFFF" transform="translate(0,0)"/>
<path d="" fill="#FFFFFF" transform="translate(0,0)"/>
<path d="" fill="#FFFFFF" transform="translate(0,0)"/>
<path d="" fill="#FFFFFF" transform="translate(0,0)"/>
<path d="" fill="#FFFFFF" transform="translate(0,0)"/>
<path d="" fill="#FFFFFF" transform="translate(0,0)"/>
<path d="" fill="#FFFFFF" transform="translate(0,0)"/>
<path d="" fill="#FFFFFF" transform="translate(0,0)"/>
<path d="" fill="#FFFFFF" transform="translate(0,0)"/>
</svg>
